<?xml version="1.0" encoding="UTF-8" standalone="no"?>
<!-- Generator: Adobe Illustrator 12.0.0, SVG Export Plug-In . SVG Version: 6.00 Build 51448)  -->

<svg
   xmlns:dc="http://purl.org/dc/elements/1.1/"
   xmlns:cc="http://creativecommons.org/ns#"
   xmlns:rdf="http://www.w3.org/1999/02/22-rdf-syntax-ns#"
   xmlns:svg="http://www.w3.org/2000/svg"
   xmlns="http://www.w3.org/2000/svg"
   xmlns:sodipodi="http://sodipodi.sourceforge.net/DTD/sodipodi-0.dtd"
   xmlns:inkscape="http://www.inkscape.org/namespaces/inkscape"
   xml:space="preserve"
   overflow="visible"
   version="1.1"
   enable-background="new 0 0 445.807 222.829"
   viewBox="0 0 463.63928 463.63929"
   id="svg1046"
   sodipodi:docname="logo.svg"
   inkscape:version="0.92.3 (unknown)"
   width="463.63928"
   height="463.63928"
   style="overflow:visible"><defs
   id="defs1050" /><sodipodi:namedview
   pagecolor="#ffffff"
   bordercolor="#666666"
   borderopacity="1"
   objecttolerance="10"
   gridtolerance="10"
   guidetolerance="10"
   inkscape:pageopacity="0"
   inkscape:pageshadow="2"
   inkscape:window-width="1854"
   inkscape:window-height="1020"
   id="namedview1048"
   showgrid="false"
   inkscape:zoom="0.67293693"
   inkscape:cx="87.957895"
   inkscape:cy="278.33812"
   inkscape:window-x="66"
   inkscape:window-y="36"
   inkscape:window-maximized="1"
   inkscape:current-layer="svg1046"
   fit-margin-top="0"
   fit-margin-left="0"
   fit-margin-right="0"
   fit-margin-bottom="0" />

<g
   id="g2382"
   transform="translate(8.8800229,106.13284)"><g
     id="Water">
	<polygon
   id="polygon2"
   points="111.52,79.389 42.849,58.258 42.849,0.677 111.52,21.808 "
   style="fill:#ffbf00;stroke:#000000" />
	<g
   id="XMLID_2_"
   style="opacity:0.72000002">
		<g
   id="g6">
			<path
   id="path4"
   d="m 159.18,113.43 v 96.899 c 0,6.631 -5.37,12 -12,12 h -126 c -6.63,0 -12,-5.369 -12,-12 V 111.62 c 3.25,-1.29 6.19,-1.33 8.91,-2.55 1.03,-0.23 2.07,-0.44 3.1,-0.64 8.23,-1.55 16.18,-1.77 23.49,3.56 0.92,0.31 1.83,0.58 2.74,0.799 7.29,1.83 14.48,1.221 22.29,-1.31 1.07,-0.37 2.16,-0.78 3.28,-1.29 3.39,-1.95 6.67,-2.92 9.91,-3.23 0.65,-0.07 1.3,-0.1 1.95,-0.12 9.47,-1.51 16.56,6.49 25.52,6.67 0.92,0.16 1.84,0.279 2.77,0.359 2.78,0.24 5.57,0.101 8.34,-0.399 1.06,-0.19 2.11,-0.44 3.16,-0.73 6.44,-4.49 13.34,-4.85 20.21,-3.979 0.99,0.14 1.98,0.31 2.98,0.51 3.58,2.1 7.37,3.47 11.21,4.16 z"
   inkscape:connector-curvature="0"
   style="fill:#0000ff" />
		</g>
	</g>
	<g
   id="g19">
		<circle
   id="circle9"
   cy="49.981998"
   r="4.9060001"
   cx="55.723"
   style="fill:#ff0000;stroke:#000000" />
		<g
   id="g17">
			<rect
   id="rect11"
   width="10.426"
   height="10.426"
   x="53.27"
   y="47.988998"
   style="fill:none" />
			<path
   id="path13"
   d="m 54.17,48.188 v 1.557 h 1.799 v -1.557 h 0.486 v 3.72 H 55.969 V 50.164 H 54.17 v 1.744 h -0.486 v -3.72 z"
   inkscape:connector-curvature="0" />
			<path
   id="path15"
   d="m 57.931,48.357 v 0.756 h 0.727 v 0.193 h -0.727 v 0.763 h -0.206 v -0.763 h -0.727 v -0.193 h 0.727 v -0.756 z"
   inkscape:connector-curvature="0" />
		</g>
	</g>
	<g
   id="g31">
		<circle
   id="circle21"
   cy="31.996"
   r="4.9060001"
   cx="52.848999"
   style="fill:#ff0000;stroke:#000000" />
		<g
   id="g29">
			<rect
   id="rect23"
   width="10.426"
   height="10.426"
   x="50.396"
   y="30.003"
   style="fill:none" />
			<path
   id="path25"
   d="m 51.296,30.202 v 1.557 h 1.799 v -1.557 h 0.486 v 3.72 h -0.486 v -1.744 h -1.799 v 1.744 H 50.81 v -3.72 z"
   inkscape:connector-curvature="0" />
			<path
   id="path27"
   d="m 55.057,30.372 v 0.756 h 0.727 v 0.193 h -0.727 v 0.763 h -0.206 v -0.763 h -0.727 v -0.193 h 0.727 v -0.756 z"
   inkscape:connector-curvature="0" />
		</g>
	</g>
	<g
   id="g43">
		<circle
   id="circle33"
   cy="33.330002"
   r="4.9060001"
   cx="78.182999"
   style="fill:#ff0000;stroke:#000000" />
		<g
   id="g41">
			<rect
   id="rect35"
   width="10.426"
   height="10.426"
   x="75.728996"
   y="31.336"
   style="fill:none" />
			<path
   id="path37"
   d="m 76.628,31.536 v 1.557 h 1.8 v -1.557 h 0.485 v 3.72 h -0.485 v -1.744 h -1.8 v 1.744 h -0.485 v -3.72 z"
   inkscape:connector-curvature="0" />
			<path
   id="path39"
   d="m 80.389,31.706 v 0.756 h 0.727 v 0.193 h -0.727 v 0.763 h -0.206 v -0.763 h -0.727 v -0.193 h 0.727 v -0.756 z"
   inkscape:connector-curvature="0" />
		</g>
	</g>
	<g
   id="g55">
		<circle
   id="circle45"
   cy="43.328999"
   r="4.9060001"
   cx="98.783997"
   style="fill:#ff0000;stroke:#000000" />
		<g
   id="g53">
			<rect
   id="rect47"
   width="10.426"
   height="10.426"
   x="96.331001"
   y="41.334999"
   style="fill:none" />
			<path
   id="path49"
   d="m 97.23,41.534 v 1.557 h 1.8 v -1.557 h 0.485 v 3.72 H 99.03 V 43.51 h -1.8 v 1.744 h -0.485 v -3.72 z"
   inkscape:connector-curvature="0" />
			<path
   id="path51"
   d="m 100.99,41.704 v 0.756 h 0.728 v 0.193 h -0.728 v 0.763 h -0.206 v -0.763 h -0.727 V 42.46 h 0.727 v -0.756 h 0.21 z"
   inkscape:connector-curvature="0" />
		</g>
	</g>
	<g
   id="g67">
		<circle
   id="circle57"
   cy="49.285"
   r="4.9060001"
   cx="75.684998"
   style="fill:#ff0000;stroke:#000000" />
		<g
   id="g65">
			<rect
   id="rect59"
   width="10.425"
   height="10.426"
   x="73.231003"
   y="47.291"
   style="fill:none" />
			<path
   id="path61"
   d="m 74.131,47.49 v 1.557 H 75.93 V 47.49 h 0.486 v 3.72 H 75.93 v -1.744 h -1.799 v 1.744 h -0.486 v -3.72 z"
   inkscape:connector-curvature="0" />
			<path
   id="path63"
   d="m 77.892,47.66 v 0.756 h 0.727 v 0.193 h -0.727 v 0.763 h -0.206 v -0.763 h -0.727 v -0.193 h 0.727 V 47.66 Z"
   inkscape:connector-curvature="0" />
		</g>
	</g>
	<g
   id="g79">
		<circle
   id="circle69"
   cy="61.112"
   r="4.9060001"
   cx="90.789001"
   style="fill:#ff0000;stroke:#000000" />
		<g
   id="g77">
			<rect
   id="rect71"
   width="10.426"
   height="10.426"
   x="88.335999"
   y="59.118999"
   style="fill:none" />
			<path
   id="path73"
   d="m 89.235,59.318 v 1.557 h 1.8 v -1.557 h 0.485 v 3.72 h -0.485 v -1.744 h -1.8 v 1.744 H 88.75 v -3.72 z"
   inkscape:connector-curvature="0" />
			<path
   id="path75"
   d="m 92.996,59.488 v 0.756 h 0.728 v 0.193 H 92.996 V 61.2 H 92.79 v -0.763 h -0.727 v -0.193 h 0.727 v -0.756 z"
   inkscape:connector-curvature="0" />
		</g>
	</g>
	<g
   id="g93">
		<circle
   id="circle81"
   cy="129.64"
   r="7.316"
   cx="31.158001"
   style="fill:#00ff00;stroke:#000000" />
		<g
   id="g91">
			<rect
   id="rect83"
   width="13.157"
   height="13.158"
   x="26.937"
   y="126.75"
   style="fill:none" />
			<path
   id="path85"
   d="m 27.466,131.7 v -4.694 h 0.669 l 1.498,2.376 c 0.341,0.55 0.62,1.037 0.836,1.525 l 0.021,-0.008 c -0.056,-0.627 -0.069,-1.197 -0.069,-1.922 v -1.972 h 0.571 v 4.694 h -0.613 l -1.491,-2.382 c -0.327,-0.522 -0.641,-1.059 -0.871,-1.567 l -0.021,0.008 c 0.035,0.592 0.042,1.156 0.042,1.936 v 2.006 z"
   inkscape:connector-curvature="0" />
			<path
   id="path87"
   d="m 34.389,130.89 c 0,0.292 0.014,0.578 0.049,0.808 h -0.55 l -0.056,-0.424 h -0.021 c -0.181,0.264 -0.55,0.501 -1.031,0.501 -0.683,0 -1.031,-0.48 -1.031,-0.968 0,-0.815 0.725,-1.262 2.027,-1.254 v -0.07 c 0,-0.278 -0.076,-0.787 -0.766,-0.779 -0.32,0 -0.647,0.09 -0.884,0.25 l -0.14,-0.41 c 0.279,-0.175 0.69,-0.293 1.115,-0.293 1.038,0 1.289,0.703 1.289,1.379 v 1.25 z m -0.599,-0.91 c -0.668,-0.014 -1.428,0.105 -1.428,0.76 0,0.404 0.265,0.586 0.571,0.586 0.446,0 0.731,-0.279 0.829,-0.564 0.021,-0.063 0.028,-0.133 0.028,-0.195 v -0.6 z"
   inkscape:connector-curvature="0" />
			<path
   id="path89"
   d="m 36.203,127.22 v 0.953 h 0.918 v 0.244 h -0.918 v 0.963 h -0.26 v -0.963 h -0.917 v -0.244 h 0.917 v -0.953 z"
   inkscape:connector-curvature="0" />
		</g>
	</g>
	<g
   id="g107">
		<circle
   id="circle95"
   cy="148.98"
   r="7.316"
   cx="59.825001"
   style="fill:#00ff00;stroke:#000000" />
		<g
   id="g105">
			<rect
   id="rect97"
   width="13.157"
   height="13.157"
   x="55.604"
   y="146.08"
   style="fill:none" />
			<path
   id="path99"
   d="m 56.133,151.03 v -4.695 h 0.669 l 1.498,2.376 c 0.341,0.55 0.62,1.038 0.836,1.525 l 0.021,-0.007 c -0.056,-0.627 -0.069,-1.198 -0.069,-1.923 v -1.972 h 0.571 v 4.695 h -0.613 l -1.491,-2.383 c -0.327,-0.521 -0.641,-1.059 -0.871,-1.566 l -0.021,0.007 c 0.035,0.592 0.042,1.156 0.042,1.937 v 2.006 z"
   inkscape:connector-curvature="0" />
			<path
   id="path101"
   d="m 63.056,150.22 c 0,0.293 0.014,0.578 0.049,0.809 h -0.55 l -0.056,-0.425 h -0.021 c -0.181,0.265 -0.55,0.501 -1.031,0.501 -0.683,0 -1.031,-0.48 -1.031,-0.968 0,-0.815 0.725,-1.261 2.027,-1.254 v -0.069 c 0,-0.279 -0.076,-0.787 -0.766,-0.78 -0.32,0 -0.647,0.091 -0.884,0.251 l -0.14,-0.411 c 0.279,-0.175 0.69,-0.292 1.115,-0.292 1.038,0 1.289,0.703 1.289,1.379 v 1.26 z m -0.599,-0.91 c -0.668,-0.014 -1.428,0.104 -1.428,0.76 0,0.404 0.265,0.585 0.571,0.585 0.446,0 0.731,-0.278 0.829,-0.564 0.021,-0.063 0.028,-0.132 0.028,-0.194 v -0.6 z"
   inkscape:connector-curvature="0" />
			<path
   id="path103"
   d="m 64.87,146.55 v 0.954 h 0.918 v 0.244 H 64.87 v 0.962 h -0.26 v -0.962 h -0.917 v -0.244 h 0.917 v -0.954 z"
   inkscape:connector-curvature="0" />
		</g>
	</g>
	<g
   id="g121">
		<circle
   id="circle109"
   cy="161.64"
   r="7.316"
   cx="101.16"
   style="fill:#00ff00;stroke:#000000" />
		<g
   id="g119">
			<rect
   id="rect111"
   width="13.156"
   height="13.158"
   x="96.938004"
   y="158.75"
   style="fill:none" />
			<path
   id="path113"
   d="m 97.467,163.7 v -4.694 h 0.669 l 1.498,2.376 c 0.341,0.55 0.62,1.037 0.836,1.525 l 0.021,-0.008 c -0.056,-0.627 -0.069,-1.197 -0.069,-1.922 v -1.972 h 0.571 v 4.694 h -0.613 l -1.491,-2.382 c -0.327,-0.522 -0.641,-1.059 -0.871,-1.567 l -0.021,0.008 c 0.035,0.592 0.042,1.156 0.042,1.936 v 2.006 z"
   inkscape:connector-curvature="0" />
			<path
   id="path115"
   d="m 104.39,162.89 c 0,0.292 0.014,0.578 0.049,0.808 h -0.55 l -0.056,-0.424 h -0.021 c -0.181,0.264 -0.55,0.501 -1.031,0.501 -0.683,0 -1.031,-0.48 -1.031,-0.968 0,-0.815 0.725,-1.262 2.027,-1.254 v -0.07 c 0,-0.278 -0.077,-0.787 -0.767,-0.779 -0.32,0 -0.647,0.09 -0.884,0.25 l -0.14,-0.41 c 0.279,-0.175 0.69,-0.293 1.115,-0.293 1.038,0 1.289,0.703 1.289,1.379 v 1.25 z m -0.6,-0.91 c -0.668,-0.014 -1.428,0.105 -1.428,0.76 0,0.404 0.265,0.586 0.571,0.586 0.446,0 0.731,-0.279 0.829,-0.564 0.021,-0.063 0.028,-0.133 0.028,-0.195 v -0.6 z"
   inkscape:connector-curvature="0" />
			<path
   id="path117"
   d="m 106.2,159.22 v 0.953 h 0.918 v 0.244 H 106.2 v 0.963 h -0.26 v -0.963 h -0.917 v -0.244 h 0.917 v -0.953 z"
   inkscape:connector-curvature="0" />
		</g>
	</g>
	<g
   id="g135">
		<circle
   id="circle123"
   cy="161.33"
   r="7.316"
   cx="139.52"
   style="fill:#00ff00;stroke:#000000" />
		<g
   id="g133">
			<rect
   id="rect125"
   width="13.156"
   height="13.157"
   x="135.3"
   y="158.44"
   style="fill:none" />
			<path
   id="path127"
   d="m 135.82,163.38 v -4.695 h 0.669 l 1.498,2.376 c 0.341,0.55 0.62,1.038 0.836,1.525 l 0.021,-0.007 c -0.056,-0.627 -0.069,-1.198 -0.069,-1.923 v -1.972 h 0.571 v 4.695 h -0.613 l -1.491,-2.383 c -0.327,-0.521 -0.641,-1.059 -0.871,-1.566 l -0.021,0.007 c 0.035,0.592 0.042,1.156 0.042,1.937 v 2.006 h -0.58 z"
   inkscape:connector-curvature="0" />
			<path
   id="path129"
   d="m 142.75,162.58 c 0,0.293 0.014,0.578 0.049,0.809 h -0.55 l -0.056,-0.425 h -0.021 c -0.181,0.265 -0.55,0.501 -1.031,0.501 -0.683,0 -1.031,-0.48 -1.031,-0.968 0,-0.815 0.725,-1.261 2.027,-1.254 v -0.069 c 0,-0.279 -0.076,-0.787 -0.766,-0.78 -0.32,0 -0.647,0.091 -0.884,0.251 l -0.14,-0.411 c 0.279,-0.175 0.69,-0.292 1.115,-0.292 1.038,0 1.289,0.703 1.289,1.379 v 1.26 z m -0.6,-0.92 c -0.668,-0.014 -1.428,0.104 -1.428,0.76 0,0.404 0.265,0.585 0.571,0.585 0.446,0 0.731,-0.278 0.829,-0.564 0.021,-0.063 0.028,-0.132 0.028,-0.194 v -0.59 z"
   inkscape:connector-curvature="0" />
			<path
   id="path131"
   d="m 144.56,158.91 v 0.954 h 0.918 v 0.244 h -0.918 v 0.962 h -0.26 v -0.962 h -0.917 v -0.244 h 0.917 v -0.954 z"
   inkscape:connector-curvature="0" />
		</g>
	</g>
	<g
   id="g149">
		<circle
   id="circle137"
   cy="200.98"
   r="7.316"
   cx="36.492001"
   style="fill:#00ff00;stroke:#000000" />
		<g
   id="g147">
			<rect
   id="rect139"
   width="13.156"
   height="13.158"
   x="32.271"
   y="198.08"
   style="fill:none" />
			<path
   id="path141"
   d="m 32.8,203.03 v -4.694 h 0.669 l 1.498,2.376 c 0.341,0.55 0.62,1.037 0.836,1.525 l 0.021,-0.008 c -0.056,-0.627 -0.069,-1.197 -0.069,-1.922 v -1.972 h 0.571 v 4.694 h -0.613 l -1.491,-2.382 c -0.327,-0.522 -0.641,-1.059 -0.871,-1.567 l -0.021,0.008 c 0.035,0.592 0.042,1.156 0.042,1.936 v 2.006 z"
   inkscape:connector-curvature="0" />
			<path
   id="path143"
   d="m 39.724,202.22 c 0,0.292 0.014,0.578 0.049,0.808 h -0.55 l -0.056,-0.424 h -0.021 c -0.181,0.264 -0.55,0.501 -1.031,0.501 -0.683,0 -1.031,-0.48 -1.031,-0.968 0,-0.815 0.725,-1.262 2.027,-1.254 v -0.07 c 0,-0.278 -0.076,-0.787 -0.766,-0.779 -0.32,0 -0.647,0.09 -0.884,0.25 l -0.14,-0.41 c 0.279,-0.175 0.69,-0.293 1.115,-0.293 1.038,0 1.289,0.703 1.289,1.379 v 1.25 z m -0.599,-0.91 c -0.668,-0.014 -1.428,0.105 -1.428,0.76 0,0.404 0.265,0.586 0.571,0.586 0.446,0 0.731,-0.279 0.829,-0.564 0.021,-0.063 0.028,-0.133 0.028,-0.195 v -0.59 z"
   inkscape:connector-curvature="0" />
			<path
   id="path145"
   d="m 41.537,198.55 v 0.953 h 0.918 v 0.244 h -0.918 v 0.963 h -0.26 v -0.963 H 40.36 v -0.244 h 0.917 v -0.953 z"
   inkscape:connector-curvature="0" />
		</g>
	</g>
	<g
   id="g163">
		<circle
   id="circle151"
   cy="191.33"
   r="7.316"
   cx="127.52"
   style="fill:#00ff00;stroke:#000000" />
		<g
   id="g161">
			<rect
   id="rect153"
   width="13.158"
   height="13.156"
   x="123.29"
   y="188.44"
   style="fill:none" />
			<path
   id="path155"
   d="m 123.82,193.38 v -4.695 h 0.669 l 1.498,2.375 c 0.341,0.551 0.62,1.038 0.836,1.525 l 0.021,-0.007 c -0.056,-0.626 -0.069,-1.198 -0.069,-1.923 v -1.971 h 0.571 v 4.695 h -0.613 l -1.491,-2.383 c -0.327,-0.522 -0.641,-1.059 -0.871,-1.567 l -0.021,0.007 c 0.035,0.592 0.042,1.156 0.042,1.938 v 2.006 h -0.58 z"
   inkscape:connector-curvature="0" />
			<path
   id="path157"
   d="m 130.75,192.58 c 0,0.293 0.014,0.578 0.049,0.809 h -0.55 l -0.056,-0.426 h -0.021 c -0.181,0.266 -0.55,0.502 -1.031,0.502 -0.683,0 -1.031,-0.48 -1.031,-0.969 0,-0.814 0.725,-1.26 2.027,-1.254 v -0.068 c 0,-0.279 -0.076,-0.787 -0.766,-0.781 -0.32,0 -0.647,0.091 -0.884,0.251 l -0.14,-0.411 c 0.279,-0.174 0.69,-0.292 1.115,-0.292 1.038,0 1.289,0.703 1.289,1.379 v 1.26 z m -0.6,-0.92 c -0.668,-0.014 -1.428,0.104 -1.428,0.759 0,0.404 0.265,0.585 0.571,0.585 0.446,0 0.731,-0.278 0.829,-0.564 0.021,-0.063 0.028,-0.132 0.028,-0.194 v -0.59 z"
   inkscape:connector-curvature="0" />
			<path
   id="path159"
   d="m 132.56,188.9 v 0.955 h 0.918 v 0.243 h -0.918 v 0.962 h -0.26 v -0.962 h -0.917 v -0.243 H 132.3 V 188.9 Z"
   inkscape:connector-curvature="0" />
		</g>
	</g>
	<g
   id="g177">
		<circle
   id="circle165"
   cy="183.33"
   r="6.5669999"
   cx="68.181999"
   style="fill:#ffff00;stroke:#000000" />
		<g
   id="g175">
			<rect
   id="rect167"
   width="13.157"
   height="13.157"
   x="64.960999"
   y="180.69"
   style="fill:none" />
			<path
   id="path169"
   d="m 68.764,185.49 c -0.216,0.111 -0.669,0.223 -1.24,0.223 -1.324,0 -2.313,-0.836 -2.313,-2.382 0,-1.477 0.996,-2.466 2.452,-2.466 0.578,0 0.954,0.125 1.114,0.209 l -0.153,0.494 c -0.223,-0.111 -0.55,-0.194 -0.94,-0.194 -1.101,0 -1.832,0.703 -1.832,1.937 0,1.156 0.662,1.887 1.797,1.887 0.376,0 0.752,-0.076 0.996,-0.194 l 0.119,0.48 z"
   inkscape:connector-curvature="0" />
			<path
   id="path171"
   d="m 69.488,180.69 h 0.613 v 4.945 h -0.613 v -4.95 z"
   inkscape:connector-curvature="0" />
			<path
   id="path173"
   d="m 71.735,182.09 v 0.261 h -1.003 v -0.261 z"
   inkscape:connector-curvature="0" />
		</g>
	</g>
	<g
   id="g191">
		<circle
   id="circle179"
   cy="129.33"
   r="6.566"
   cx="86.182999"
   style="fill:#ffff00;stroke:#000000" />
		<g
   id="g189">
			<rect
   id="rect181"
   width="13.156"
   height="13.156"
   x="82.961998"
   y="126.69"
   style="fill:none" />
			<path
   id="path183"
   d="m 86.765,131.49 c -0.216,0.111 -0.669,0.223 -1.24,0.223 -1.324,0 -2.313,-0.836 -2.313,-2.383 0,-1.477 0.996,-2.465 2.452,-2.465 0.578,0 0.954,0.125 1.114,0.209 l -0.153,0.494 c -0.223,-0.111 -0.55,-0.195 -0.94,-0.195 -1.101,0 -1.832,0.703 -1.832,1.937 0,1.156 0.662,1.888 1.797,1.888 0.376,0 0.752,-0.076 0.996,-0.195 l 0.119,0.49 z"
   inkscape:connector-curvature="0" />
			<path
   id="path185"
   d="m 87.489,126.69 h 0.613 v 4.945 h -0.613 v -4.95 z"
   inkscape:connector-curvature="0" />
			<path
   id="path187"
   d="m 89.736,128.09 v 0.261 h -1.003 v -0.261 z"
   inkscape:connector-curvature="0" />
		</g>
	</g>
	<g
   id="g205">
		<circle
   id="circle193"
   cy="135.33"
   r="6.566"
   cx="126.85"
   style="fill:#ffff00;stroke:#000000" />
		<g
   id="g203">
			<rect
   id="rect195"
   width="13.156"
   height="13.156"
   x="123.63"
   y="132.69"
   style="fill:none" />
			<path
   id="path197"
   d="m 127.43,137.49 c -0.216,0.111 -0.669,0.223 -1.24,0.223 -1.324,0 -2.313,-0.836 -2.313,-2.383 0,-1.477 0.996,-2.465 2.452,-2.465 0.578,0 0.954,0.125 1.114,0.209 l -0.153,0.494 c -0.223,-0.111 -0.55,-0.195 -0.94,-0.195 -1.101,0 -1.832,0.703 -1.832,1.937 0,1.156 0.662,1.888 1.797,1.888 0.376,0 0.752,-0.076 0.996,-0.195 l 0.11,0.49 z"
   inkscape:connector-curvature="0" />
			<path
   id="path199"
   d="m 128.16,132.69 h 0.613 v 4.945 h -0.613 v -4.95 z"
   inkscape:connector-curvature="0" />
			<path
   id="path201"
   d="m 130.4,134.09 v 0.261 h -1.003 v -0.261 h 1 z"
   inkscape:connector-curvature="0" />
		</g>
	</g>
	<g
   id="g219">
		<circle
   id="circle207"
   cy="210.66"
   r="6.566"
   cx="92.182999"
   style="fill:#ffff00;stroke:#000000" />
		<g
   id="g217">
			<rect
   id="rect209"
   width="13.156"
   height="13.158"
   x="88.961998"
   y="208.02"
   style="fill:none" />
			<path
   id="path211"
   d="m 92.765,212.82 c -0.216,0.112 -0.669,0.224 -1.24,0.224 -1.324,0 -2.313,-0.836 -2.313,-2.382 0,-1.477 0.996,-2.467 2.452,-2.467 0.578,0 0.954,0.126 1.114,0.209 l -0.153,0.495 c -0.223,-0.111 -0.55,-0.194 -0.94,-0.194 -1.101,0 -1.832,0.703 -1.832,1.936 0,1.156 0.662,1.888 1.797,1.888 0.376,0 0.752,-0.077 0.996,-0.194 l 0.119,0.47 z"
   inkscape:connector-curvature="0" />
			<path
   id="path213"
   d="m 93.489,208.02 h 0.613 v 4.945 h -0.613 v -4.94 z"
   inkscape:connector-curvature="0" />
			<path
   id="path215"
   d="m 95.735,209.42 v 0.26 h -1.003 v -0.26 z"
   inkscape:connector-curvature="0" />
		</g>
	</g>
	<g
   id="g233">
		<circle
   id="circle221"
   cy="168"
   r="6.566"
   cx="26.849001"
   style="fill:#ffff00;stroke:#000000" />
		<g
   id="g231">
			<rect
   id="rect223"
   width="13.156"
   height="13.157"
   x="23.628"
   y="165.36"
   style="fill:none" />
			<path
   id="path225"
   d="m 27.431,170.16 c -0.216,0.111 -0.669,0.223 -1.24,0.223 -1.324,0 -2.313,-0.836 -2.313,-2.382 0,-1.477 0.996,-2.466 2.452,-2.466 0.578,0 0.954,0.125 1.114,0.209 l -0.153,0.494 c -0.223,-0.111 -0.55,-0.194 -0.94,-0.194 -1.101,0 -1.832,0.703 -1.832,1.937 0,1.156 0.662,1.887 1.797,1.887 0.376,0 0.752,-0.076 0.996,-0.194 l 0.119,0.48 z"
   inkscape:connector-curvature="0" />
			<path
   id="path227"
   d="m 28.155,165.36 h 0.613 v 4.945 h -0.613 v -4.94 z"
   inkscape:connector-curvature="0" />
			<path
   id="path229"
   d="m 30.401,166.76 v 0.261 h -1.003 v -0.261 z"
   inkscape:connector-curvature="0" />
		</g>
	</g>
	<g
   id="g253">
			<rect
   id="rect235"
   x="47.603001"
   y="16.525"
   width="75.014"
   height="39.091999"
   transform="matrix(0.9511,0.309,-0.309,0.9511,15.312,-24.535)"
   style="fill:none" />
		<path
   id="path237"
   d="M 55.284,9.008 C 55.444,8.515 55.55,8.122 55.657,7.73 l 0.743,0.241 -0.206,0.766 0.029,0.01 c 0.405,-0.36 0.976,-0.634 1.759,-0.379 0.628,0.204 0.985,0.747 1.009,1.364 l 0.02,0.006 C 59.244,9.514 59.5,9.384 59.74,9.302 c 0.35,-0.122 0.687,-0.14 1.131,0.004 0.629,0.205 1.416,0.909 0.888,2.533 l -0.896,2.755 -0.831,-0.27 0.86,-2.648 c 0.295,-0.909 0.129,-1.551 -0.547,-1.771 -0.493,-0.16 -0.978,0.078 -1.263,0.434 -0.08,0.113 -0.159,0.258 -0.206,0.403 l -0.942,2.9 -0.831,-0.271 0.911,-2.803 c 0.245,-0.754 0.089,-1.393 -0.558,-1.603 -0.522,-0.17 -1.057,0.127 -1.33,0.508 -0.089,0.11 -0.156,0.249 -0.203,0.394 l -0.917,2.823 -0.832,-0.27 z"
   inkscape:connector-curvature="0" />
		<path
   id="path239"
   d="m 63.433,13.002 c -0.354,1.157 0.216,1.866 1.067,2.142 0.609,0.198 1.021,0.214 1.371,0.189 l -0.041,0.649 c -0.343,0.038 -0.918,0.033 -1.663,-0.209 -1.43,-0.464 -1.99,-1.705 -1.534,-3.106 0.461,-1.42 1.664,-2.259 3.027,-1.816 1.528,0.496 1.487,1.968 1.207,2.829 -0.056,0.174 -0.11,0.307 -0.161,0.396 z m 2.682,0.199 c 0.182,-0.528 0.227,-1.455 -0.721,-1.763 -0.87,-0.282 -1.495,0.391 -1.754,0.958 z"
   inkscape:connector-curvature="0" />
		<path
   id="path241"
   d="m 68.188,13.201 c 0.16,-0.493 0.267,-0.886 0.373,-1.278 l 0.744,0.242 -0.206,0.766 0.029,0.01 c 0.405,-0.36 0.976,-0.634 1.759,-0.379 0.628,0.204 0.985,0.747 1.01,1.364 l 0.019,0.006 c 0.233,-0.224 0.489,-0.354 0.729,-0.436 0.35,-0.122 0.687,-0.14 1.131,0.004 0.629,0.204 1.416,0.908 0.888,2.532 l -0.895,2.755 -0.832,-0.27 0.86,-2.648 c 0.295,-0.909 0.129,-1.551 -0.547,-1.771 -0.493,-0.16 -0.977,0.079 -1.263,0.434 -0.08,0.113 -0.159,0.258 -0.206,0.403 l -0.942,2.9 -0.831,-0.271 0.911,-2.803 c 0.245,-0.754 0.089,-1.393 -0.558,-1.603 -0.522,-0.169 -1.057,0.127 -1.33,0.508 -0.089,0.11 -0.156,0.249 -0.203,0.394 l -0.917,2.823 -0.832,-0.27 z"
   inkscape:connector-curvature="0" />
		<path
   id="path243"
   d="m 77.372,12.37 0.851,0.276 -0.952,2.929 0.019,0.006 c 0.47,-0.424 1.118,-0.577 1.872,-0.332 1.159,0.376 1.658,1.607 1.199,3.018 -0.546,1.682 -1.88,2.168 -2.924,1.829 -0.677,-0.22 -1.124,-0.653 -1.28,-1.388 l -0.02,-0.006 -0.299,0.757 -0.735,-0.239 c 0.132,-0.31 0.296,-0.78 0.432,-1.195 z m -0.77,5.264 c -0.035,0.106 -0.06,0.216 -0.072,0.319 -0.027,0.643 0.343,1.212 0.953,1.41 0.898,0.292 1.656,-0.264 2.004,-1.337 0.308,-0.947 0.085,-1.906 -0.823,-2.201 -0.581,-0.188 -1.253,0.042 -1.625,0.626 -0.064,0.097 -0.121,0.207 -0.165,0.342 z"
   inkscape:connector-curvature="0" />
		<path
   id="path245"
   d="m 81.697,17.804 c 0.179,-0.551 0.324,-1.028 0.436,-1.472 l 0.744,0.242 -0.26,0.931 0.03,0.01 c 0.417,-0.56 1.067,-0.786 1.638,-0.601 0.086,0.028 0.151,0.06 0.222,0.104 l -0.258,0.792 c -0.093,-0.041 -0.177,-0.079 -0.292,-0.117 -0.599,-0.194 -1.172,0.122 -1.493,0.712 -0.06,0.119 -0.114,0.252 -0.161,0.396 l -0.81,2.494 -0.851,-0.277 z"
   inkscape:connector-curvature="0" />
		<path
   id="path247"
   d="m 87.405,21.978 c -0.132,0.406 -0.242,0.809 -0.297,1.143 l -0.764,-0.248 0.115,-0.615 -0.029,-0.009 c -0.371,0.286 -0.99,0.448 -1.657,0.231 -0.947,-0.308 -1.214,-1.132 -0.995,-1.809 0.368,-1.131 1.575,-1.423 3.379,-0.826 l 0.031,-0.096 c 0.125,-0.387 0.248,-1.127 -0.712,-1.428 -0.445,-0.145 -0.939,-0.167 -1.341,-0.051 l -0.008,-0.633 c 0.465,-0.116 1.088,-0.095 1.678,0.097 1.44,0.468 1.472,1.557 1.167,2.495 z m -0.42,-1.537 c -0.922,-0.321 -2.029,-0.499 -2.324,0.41 -0.182,0.561 0.104,0.931 0.528,1.069 0.62,0.201 1.141,-0.057 1.405,-0.409 0.057,-0.078 0.099,-0.171 0.127,-0.258 z"
   inkscape:connector-curvature="0" />
		<path
   id="path249"
   d="m 89.512,20.129 c 0.16,-0.493 0.275,-0.883 0.372,-1.279 l 0.754,0.245 -0.2,0.779 0.02,0.006 c 0.373,-0.36 1.055,-0.619 1.829,-0.367 0.647,0.21 1.527,0.923 1.006,2.528 l -0.907,2.793 -0.851,-0.277 0.876,-2.696 c 0.245,-0.754 0.172,-1.483 -0.631,-1.744 -0.551,-0.179 -1.114,0.076 -1.423,0.5 -0.073,0.094 -0.142,0.242 -0.186,0.377 l -0.917,2.823 -0.851,-0.277 z"
   inkscape:connector-curvature="0" />
		<path
   id="path251"
   d="m 94.964,23.248 c -0.354,1.157 0.216,1.866 1.067,2.142 0.609,0.198 1.021,0.214 1.371,0.188 l -0.041,0.65 c -0.343,0.038 -0.918,0.033 -1.663,-0.209 -1.43,-0.464 -1.99,-1.705 -1.534,-3.106 0.461,-1.42 1.664,-2.259 3.027,-1.816 1.528,0.497 1.487,1.969 1.207,2.829 -0.056,0.174 -0.109,0.306 -0.161,0.396 z m 2.682,0.198 c 0.182,-0.529 0.227,-1.455 -0.721,-1.763 -0.87,-0.282 -1.495,0.391 -1.754,0.958 z"
   inkscape:connector-curvature="0" />
	</g>
	<polygon
   id="polygon255"
   points="399.88,207.33 331.21,186.2 331.21,128.62 399.88,149.75 "
   style="fill:#ffbf00;stroke:#000000" />
	<g
   id="XMLID_3_"
   style="opacity:0.72000002">
		<g
   id="g259">
			<path
   id="path257"
   d="m 438.21,113.37 v 96.9 c 0,6.63 -5.38,12 -12,12 h -126 c -6.63,0 -12,-5.37 -12,-12 v -98.71 c 3.24,-1.29 6.18,-1.33 8.9,-2.55 1.04,-0.23 2.069,-0.44 3.1,-0.64 8.23,-1.55 16.18,-1.77 23.5,3.56 0.91,0.31 1.83,0.57 2.74,0.8 7.29,1.83 14.47,1.22 22.29,-1.31 1.06,-0.37 2.149,-0.78 3.27,-1.29 3.4,-1.95 6.67,-2.92 9.92,-3.24 0.65,-0.06 1.29,-0.09 1.94,-0.11 9.47,-1.51 16.57,6.49 25.52,6.67 0.92,0.16 1.851,0.28 2.771,0.36 2.78,0.24 5.58,0.1 8.35,-0.4 1.05,-0.189 2.11,-0.439 3.15,-0.729 6.45,-4.49 13.35,-4.85 20.21,-3.99 0.99,0.15 1.979,0.32 2.99,0.52 3.569,2.1 7.37,3.47 11.21,4.16 h 0.14 z"
   inkscape:connector-curvature="0"
   style="fill:#0000ff" />
		</g>
		<g
   id="g269"
   style="fill:none;stroke:#000000">
			<path
   id="path261"
   d="m 438.23,73.458 c 0,-4.97 3.02,-9.24 7.329,-11.06"
   inkscape:connector-curvature="0" />
			<path
   id="path263"
   d="m 438.21,73.268 v 137 c 0,6.63 -5.38,12 -12,12 h -126 c -6.63,0 -12,-5.37 -12,-12 V 73.388"
   inkscape:connector-curvature="0" />
			<path
   id="path265"
   d="m 279.28,61.788 c 5.1,1.35 8.88,5.97 8.93,11.48 v 0.12"
   inkscape:connector-curvature="0" />
			<path
   id="path267"
   d="m 287.87,111.69 c 0.11,-0.05 0.229,-0.09 0.34,-0.13 3.24,-1.29 6.18,-1.33 8.9,-2.55 1.04,-0.23 2.069,-0.44 3.1,-0.64 8.23,-1.55 16.18,-1.77 23.5,3.56 0.91,0.31 1.83,0.57 2.74,0.8 7.29,1.83 14.47,1.22 22.29,-1.31 1.06,-0.37 2.149,-0.78 3.27,-1.29 3.4,-1.95 6.67,-2.92 9.92,-3.24 0.65,-0.06 1.29,-0.09 1.94,-0.11 9.47,-1.51 16.57,6.49 25.52,6.67 0.92,0.16 1.851,0.28 2.771,0.36 2.78,0.24 5.58,0.1 8.35,-0.4 1.05,-0.189 2.11,-0.439 3.15,-0.729 6.45,-4.49 13.35,-4.85 20.21,-3.99 0.99,0.15 1.979,0.32 2.99,0.52 3.569,2.1 7.37,3.47 11.21,4.16"
   inkscape:connector-curvature="0" />
		</g>
	</g>
	<g
   id="g282">
		<circle
   id="circle272"
   cy="158.72"
   r="4.9060001"
   cx="419.78"
   style="fill:#ff0000;stroke:#000000" />
		<g
   id="g280">
			<rect
   id="rect274"
   width="10.426"
   height="10.426"
   x="417.32999"
   y="156.72"
   style="fill:none" />
			<path
   id="path276"
   d="m 418.23,156.92 v 1.557 h 1.799 v -1.557 h 0.486 v 3.721 h -0.486 v -1.744 h -1.799 v 1.744 h -0.486 v -3.721 h 0.49 z"
   inkscape:connector-curvature="0" />
			<path
   id="path278"
   d="m 421.99,157.09 v 0.757 h 0.728 v 0.192 h -0.728 v 0.764 h -0.206 v -0.764 h -0.727 v -0.192 h 0.727 v -0.757 h 0.21 z"
   inkscape:connector-curvature="0" />
		</g>
	</g>
	<g
   id="g294">
		<circle
   id="circle284"
   cy="208.72"
   r="4.9060001"
   cx="415.78"
   style="fill:#ff0000;stroke:#000000" />
		<g
   id="g292">
			<rect
   id="rect286"
   width="10.426"
   height="10.426"
   x="413.32999"
   y="206.72"
   style="fill:none" />
			<path
   id="path288"
   d="m 414.23,206.92 v 1.557 h 1.799 v -1.557 h 0.485 v 3.72 h -0.485 v -1.744 h -1.799 v 1.744 h -0.486 v -3.72 h 0.48 z"
   inkscape:connector-curvature="0" />
			<path
   id="path290"
   d="m 417.99,207.09 v 0.757 h 0.728 v 0.192 h -0.728 v 0.763 h -0.205 v -0.763 h -0.728 v -0.192 h 0.728 v -0.757 h 0.21 z"
   inkscape:connector-curvature="0" />
		</g>
	</g>
	<g
   id="g306">
		<circle
   id="circle296"
   cy="203.7"
   r="4.9060001"
   cx="335.20999"
   style="fill:#ff0000;stroke:#000000" />
		<g
   id="g304">
			<rect
   id="rect298"
   width="10.426"
   height="10.426"
   x="332.75"
   y="201.7"
   style="fill:none" />
			<path
   id="path300"
   d="m 333.65,201.9 v 1.557 h 1.799 V 201.9 h 0.486 v 3.721 h -0.486 v -1.744 h -1.799 v 1.744 h -0.486 V 201.9 h 0.49 z"
   inkscape:connector-curvature="0" />
			<path
   id="path302"
   d="m 337.42,202.07 v 0.757 h 0.728 v 0.192 h -0.728 v 0.764 h -0.206 v -0.764 h -0.727 v -0.192 h 0.727 v -0.757 h 0.21 z"
   inkscape:connector-curvature="0" />
		</g>
	</g>
	<g
   id="g318">
		<circle
   id="circle308"
   cy="120.6"
   r="4.9060001"
   cx="358.98999"
   style="fill:#ff0000;stroke:#000000" />
		<g
   id="g316">
			<rect
   id="rect310"
   width="10.426"
   height="10.426"
   x="356.54001"
   y="118.6"
   style="fill:none" />
			<path
   id="path312"
   d="m 357.44,118.8 v 1.557 h 1.8 V 118.8 h 0.485 v 3.721 h -0.485 v -1.744 h -1.8 v 1.744 h -0.485 V 118.8 h 0.48 z"
   inkscape:connector-curvature="0" />
			<path
   id="path314"
   d="m 361.2,118.97 v 0.757 h 0.728 v 0.192 H 361.2 v 0.764 h -0.206 v -0.764 h -0.727 v -0.192 h 0.727 v -0.757 h 0.21 z"
   inkscape:connector-curvature="0" />
		</g>
	</g>
	<g
   id="g330">
		<circle
   id="circle320"
   cy="181.38"
   r="4.9060001"
   cx="314.45001"
   style="fill:#ff0000;stroke:#000000" />
		<g
   id="g328">
			<rect
   id="rect322"
   width="10.425"
   height="10.426"
   x="312"
   y="179.39"
   style="fill:none" />
			<path
   id="path324"
   d="m 312.9,179.59 v 1.557 h 1.799 v -1.557 h 0.486 v 3.721 h -0.486 v -1.744 H 312.9 v 1.744 h -0.485 v -3.721 h 0.48 z"
   inkscape:connector-curvature="0" />
			<path
   id="path326"
   d="m 316.66,179.76 v 0.757 h 0.727 v 0.192 h -0.727 v 0.764 h -0.207 v -0.764 h -0.727 v -0.192 h 0.727 v -0.757 h 0.21 z"
   inkscape:connector-curvature="0" />
		</g>
	</g>
	<g
   id="g342">
		<circle
   id="circle332"
   cy="143.16"
   r="4.9060001"
   cx="314.39001"
   style="fill:#ff0000;stroke:#000000" />
		<g
   id="g340">
			<rect
   id="rect334"
   width="10.426"
   height="10.426"
   x="311.94"
   y="141.17"
   style="fill:none" />
			<path
   id="path336"
   d="m 312.83,141.37 v 1.557 h 1.8 v -1.557 h 0.485 v 3.721 h -0.485 v -1.744 h -1.8 v 1.744 h -0.485 v -3.721 h 0.47 z"
   inkscape:connector-curvature="0" />
			<path
   id="path338"
   d="m 316.6,141.54 v 0.757 h 0.728 v 0.192 H 316.6 v 0.764 h -0.206 v -0.764 h -0.727 v -0.192 h 0.727 v -0.757 h 0.21 z"
   inkscape:connector-curvature="0" />
		</g>
	</g>
	<g
   id="g356">
		<circle
   id="circle344"
   cy="128.91"
   r="7.316"
   cx="416.85001"
   style="fill:#00ff00;stroke:#000000" />
		<g
   id="g354">
			<rect
   id="rect346"
   width="13.158"
   height="13.157"
   x="412.63"
   y="126.02"
   style="fill:none" />
			<path
   id="path348"
   d="m 413.16,130.97 v -4.694 h 0.67 l 1.497,2.375 c 0.341,0.551 0.62,1.037 0.836,1.525 l 0.021,-0.008 c -0.056,-0.626 -0.069,-1.197 -0.069,-1.922 v -1.971 h 0.571 v 4.694 h -0.613 l -1.49,-2.382 c -0.328,-0.523 -0.641,-1.059 -0.871,-1.568 l -0.021,0.008 c 0.035,0.592 0.043,1.156 0.043,1.937 v 2.006 h -0.58 z"
   inkscape:connector-curvature="0" />
			<path
   id="path350"
   d="m 420.08,130.16 c 0,0.292 0.014,0.578 0.049,0.808 h -0.551 l -0.055,-0.425 h -0.021 c -0.182,0.265 -0.551,0.502 -1.031,0.502 -0.682,0 -1.031,-0.48 -1.031,-0.969 0,-0.814 0.725,-1.261 2.027,-1.254 v -0.069 c 0,-0.278 -0.076,-0.787 -0.766,-0.78 -0.32,0 -0.648,0.09 -0.885,0.25 l -0.14,-0.41 c 0.278,-0.174 0.69,-0.293 1.114,-0.293 1.038,0 1.289,0.703 1.289,1.379 v 1.26 z m -0.6,-0.91 c -0.668,-0.014 -1.428,0.104 -1.428,0.759 0,0.404 0.266,0.586 0.571,0.586 0.446,0 0.731,-0.279 0.829,-0.564 0.021,-0.063 0.027,-0.133 0.027,-0.195 v -0.59 z"
   inkscape:connector-curvature="0" />
			<path
   id="path352"
   d="m 421.9,126.49 v 0.954 h 0.918 v 0.243 H 421.9 v 0.963 h -0.26 v -0.963 h -0.917 v -0.243 h 0.917 v -0.954 z"
   inkscape:connector-curvature="0" />
		</g>
	</g>
	<g
   id="g370">
		<circle
   id="circle358"
   cy="186.92"
   r="7.316"
   cx="382.85001"
   style="fill:#00ff00;stroke:#000000" />
		<g
   id="g368">
			<rect
   id="rect360"
   width="13.158"
   height="13.156"
   x="378.63"
   y="184.02"
   style="fill:none" />
			<path
   id="path362"
   d="m 379.16,188.97 v -4.695 h 0.67 l 1.497,2.375 c 0.341,0.551 0.62,1.038 0.836,1.525 l 0.021,-0.007 c -0.056,-0.626 -0.069,-1.198 -0.069,-1.923 v -1.971 h 0.571 v 4.695 h -0.613 l -1.49,-2.383 c -0.328,-0.522 -0.641,-1.059 -0.871,-1.567 l -0.021,0.007 c 0.035,0.592 0.043,1.156 0.043,1.938 v 2.006 h -0.58 z"
   inkscape:connector-curvature="0" />
			<path
   id="path364"
   d="m 386.08,188.16 c 0,0.293 0.014,0.578 0.049,0.809 h -0.551 l -0.055,-0.426 h -0.021 c -0.182,0.266 -0.551,0.502 -1.031,0.502 -0.682,0 -1.031,-0.48 -1.031,-0.969 0,-0.814 0.725,-1.26 2.027,-1.254 v -0.068 c 0,-0.279 -0.076,-0.787 -0.766,-0.781 -0.32,0 -0.648,0.091 -0.885,0.251 l -0.14,-0.411 c 0.278,-0.174 0.69,-0.292 1.114,-0.292 1.038,0 1.289,0.703 1.289,1.379 v 1.26 z m -0.6,-0.91 c -0.668,-0.014 -1.428,0.104 -1.428,0.759 0,0.404 0.266,0.585 0.571,0.585 0.446,0 0.731,-0.278 0.829,-0.564 0.021,-0.063 0.027,-0.132 0.027,-0.194 v -0.6 z"
   inkscape:connector-curvature="0" />
			<path
   id="path366"
   d="m 387.9,184.49 v 0.955 h 0.918 v 0.243 H 387.9 v 0.962 h -0.26 v -0.962 h -0.917 v -0.243 h 0.917 v -0.955 z"
   inkscape:connector-curvature="0" />
		</g>
	</g>
	<g
   id="g384">
		<circle
   id="circle372"
   cy="155.58"
   r="7.316"
   cx="344.17999"
   style="fill:#00ff00;stroke:#000000" />
		<g
   id="g382">
			<rect
   id="rect374"
   width="13.156"
   height="13.157"
   x="339.95999"
   y="152.69"
   style="fill:none" />
			<path
   id="path376"
   d="m 340.49,157.64 v -4.695 h 0.67 l 1.497,2.376 c 0.341,0.55 0.62,1.038 0.836,1.525 l 0.021,-0.007 c -0.056,-0.627 -0.069,-1.198 -0.069,-1.923 v -1.972 h 0.571 v 4.695 h -0.613 l -1.49,-2.383 c -0.328,-0.521 -0.641,-1.059 -0.871,-1.566 l -0.021,0.007 c 0.035,0.592 0.043,1.156 0.043,1.937 v 2.006 h -0.58 z"
   inkscape:connector-curvature="0" />
			<path
   id="path378"
   d="m 347.42,156.83 c 0,0.293 0.014,0.578 0.049,0.809 h -0.551 l -0.055,-0.425 h -0.021 c -0.182,0.265 -0.551,0.501 -1.031,0.501 -0.682,0 -1.031,-0.48 -1.031,-0.968 0,-0.815 0.725,-1.261 2.027,-1.254 v -0.069 c 0,-0.279 -0.076,-0.787 -0.766,-0.78 -0.32,0 -0.648,0.091 -0.885,0.251 l -0.14,-0.411 c 0.278,-0.175 0.69,-0.292 1.114,-0.292 1.038,0 1.289,0.703 1.289,1.379 v 1.25 z m -0.6,-0.91 c -0.668,-0.014 -1.428,0.104 -1.428,0.76 0,0.404 0.266,0.585 0.571,0.585 0.446,0 0.731,-0.278 0.829,-0.564 0.021,-0.063 0.027,-0.132 0.027,-0.194 v -0.59 z"
   inkscape:connector-curvature="0" />
			<path
   id="path380"
   d="m 349.23,153.16 v 0.954 h 0.918 v 0.244 h -0.918 v 0.962 h -0.26 v -0.962 h -0.917 v -0.244 h 0.917 v -0.954 z"
   inkscape:connector-curvature="0" />
		</g>
	</g>
	<g
   id="g398">
		<circle
   id="circle386"
   cy="165.27"
   r="7.316"
   cx="377.20999"
   style="fill:#00ff00;stroke:#000000" />
		<g
   id="g396">
			<rect
   id="rect388"
   width="13.156"
   height="13.156"
   x="372.98999"
   y="162.38"
   style="fill:none" />
			<path
   id="path390"
   d="m 373.52,167.32 v -4.694 h 0.67 l 1.497,2.376 c 0.341,0.55 0.62,1.037 0.836,1.525 l 0.021,-0.008 c -0.056,-0.627 -0.069,-1.197 -0.069,-1.922 v -1.972 h 0.571 v 4.694 h -0.613 l -1.49,-2.382 c -0.328,-0.522 -0.641,-1.059 -0.871,-1.567 l -0.021,0.008 c 0.035,0.592 0.043,1.156 0.043,1.936 v 2.006 h -0.58 z"
   inkscape:connector-curvature="0" />
			<path
   id="path392"
   d="m 380.44,166.52 c 0,0.292 0.014,0.578 0.049,0.808 h -0.551 l -0.055,-0.424 h -0.021 c -0.182,0.264 -0.551,0.501 -1.031,0.501 -0.682,0 -1.031,-0.48 -1.031,-0.968 0,-0.815 0.725,-1.262 2.027,-1.254 v -0.07 c 0,-0.278 -0.076,-0.787 -0.766,-0.779 -0.32,0 -0.648,0.09 -0.885,0.25 l -0.14,-0.41 c 0.278,-0.175 0.69,-0.293 1.114,-0.293 1.038,0 1.289,0.703 1.289,1.379 v 1.25 z m -0.6,-0.92 c -0.668,-0.014 -1.428,0.105 -1.428,0.76 0,0.404 0.266,0.586 0.571,0.586 0.446,0 0.731,-0.279 0.829,-0.564 0.021,-0.063 0.027,-0.133 0.027,-0.195 v -0.6 z"
   inkscape:connector-curvature="0" />
			<path
   id="path394"
   d="m 382.25,162.84 v 0.953 h 0.918 v 0.244 H 382.25 V 165 h -0.26 v -0.963 h -0.917 v -0.244 h 0.917 v -0.953 z"
   inkscape:connector-curvature="0" />
		</g>
	</g>
	<g
   id="g412">
		<circle
   id="circle400"
   cy="206.92"
   r="7.316"
   cx="307.51999"
   style="fill:#00ff00;stroke:#000000" />
		<g
   id="g410">
			<rect
   id="rect402"
   width="13.156"
   height="13.157"
   x="303.29999"
   y="204.02"
   style="fill:none" />
			<path
   id="path404"
   d="m 303.83,208.97 v -4.695 h 0.669 l 1.497,2.376 c 0.342,0.55 0.62,1.038 0.836,1.525 l 0.021,-0.007 c -0.057,-0.627 -0.07,-1.198 -0.07,-1.923 v -1.972 h 0.571 v 4.695 h -0.612 l -1.491,-2.383 c -0.327,-0.521 -0.641,-1.059 -0.87,-1.566 l -0.021,0.007 c 0.035,0.592 0.042,1.156 0.042,1.937 v 2.006 h -0.58 z"
   inkscape:connector-curvature="0" />
			<path
   id="path406"
   d="m 310.75,208.16 c 0,0.293 0.014,0.578 0.049,0.809 h -0.551 l -0.056,-0.425 h -0.021 c -0.182,0.265 -0.551,0.501 -1.031,0.501 -0.683,0 -1.031,-0.48 -1.031,-0.968 0,-0.815 0.725,-1.261 2.027,-1.254 v -0.069 c 0,-0.279 -0.076,-0.787 -0.767,-0.78 -0.32,0 -0.647,0.091 -0.884,0.251 l -0.141,-0.411 c 0.279,-0.175 0.69,-0.292 1.115,-0.292 1.037,0 1.289,0.703 1.289,1.379 v 1.26 z m -0.6,-0.91 c -0.668,-0.014 -1.428,0.104 -1.428,0.76 0,0.404 0.265,0.585 0.57,0.585 0.446,0 0.732,-0.278 0.83,-0.564 0.021,-0.063 0.027,-0.132 0.027,-0.194 v -0.6 z"
   inkscape:connector-curvature="0" />
			<path
   id="path408"
   d="m 312.56,204.49 v 0.954 h 0.918 v 0.244 h -0.918 v 0.962 h -0.26 v -0.962 h -0.917 v -0.244 h 0.917 v -0.954 z"
   inkscape:connector-curvature="0" />
		</g>
	</g>
	<g
   id="g426">
		<circle
   id="circle414"
   cy="176.60001"
   r="7.316"
   cx="355.88"
   style="fill:#00ff00;stroke:#000000" />
		<g
   id="g424">
			<rect
   id="rect416"
   width="13.158"
   height="13.157"
   x="351.64999"
   y="173.71001"
   style="fill:none" />
			<path
   id="path418"
   d="m 352.18,178.66 v -4.694 h 0.669 l 1.498,2.375 c 0.341,0.551 0.619,1.037 0.836,1.525 l 0.02,-0.008 c -0.055,-0.626 -0.068,-1.197 -0.068,-1.922 v -1.971 h 0.57 v 4.694 h -0.613 l -1.49,-2.382 c -0.327,-0.523 -0.641,-1.059 -0.871,-1.568 l -0.021,0.008 c 0.035,0.592 0.042,1.156 0.042,1.937 v 2.006 h -0.58 z"
   inkscape:connector-curvature="0" />
			<path
   id="path420"
   d="m 359.1,177.85 c 0,0.292 0.014,0.578 0.049,0.808 h -0.55 l -0.056,-0.425 h -0.021 c -0.181,0.265 -0.55,0.502 -1.03,0.502 -0.683,0 -1.031,-0.48 -1.031,-0.969 0,-0.814 0.725,-1.261 2.026,-1.254 v -0.069 c 0,-0.278 -0.076,-0.787 -0.766,-0.78 -0.32,0 -0.647,0.09 -0.885,0.25 l -0.139,-0.41 c 0.278,-0.174 0.689,-0.293 1.114,-0.293 1.038,0 1.288,0.703 1.288,1.379 v 1.25 z m -0.59,-0.91 c -0.669,-0.014 -1.428,0.104 -1.428,0.759 0,0.404 0.265,0.586 0.571,0.586 0.445,0 0.73,-0.279 0.828,-0.564 0.021,-0.063 0.028,-0.133 0.028,-0.195 v -0.6 z"
   inkscape:connector-curvature="0" />
			<path
   id="path422"
   d="m 360.92,174.18 v 0.954 h 0.918 v 0.243 h -0.918 v 0.963 h -0.26 v -0.963 h -0.918 v -0.243 h 0.918 v -0.954 z"
   inkscape:connector-curvature="0" />
		</g>
	</g>
	<g
   id="g440">
		<circle
   id="circle428"
   cy="127.27"
   r="6.5669999"
   cx="389.88"
   style="fill:#ffff00;stroke:#000000" />
		<g
   id="g438">
			<rect
   id="rect430"
   width="13.158"
   height="13.156"
   x="386.64999"
   y="124.63"
   style="fill:none" />
			<path
   id="path432"
   d="m 390.46,129.43 c -0.216,0.112 -0.669,0.224 -1.239,0.224 -1.324,0 -2.313,-0.836 -2.313,-2.382 0,-1.477 0.995,-2.467 2.451,-2.467 0.578,0 0.954,0.126 1.114,0.209 l -0.153,0.495 c -0.223,-0.111 -0.55,-0.194 -0.939,-0.194 -1.102,0 -1.832,0.703 -1.832,1.936 0,1.156 0.661,1.888 1.797,1.888 0.376,0 0.752,-0.077 0.996,-0.194 l 0.11,0.48 z"
   inkscape:connector-curvature="0" />
			<path
   id="path434"
   d="m 391.18,124.63 h 0.613 v 4.945 h -0.613 v -4.95 z"
   inkscape:connector-curvature="0" />
			<path
   id="path436"
   d="m 393.43,126.03 v 0.26 h -1.003 v -0.26 h 1 z"
   inkscape:connector-curvature="0" />
		</g>
	</g>
	<g
   id="g454">
		<circle
   id="circle442"
   cy="182.58"
   r="6.566"
   cx="422.42999"
   style="fill:#ffff00;stroke:#000000" />
		<g
   id="g452">
			<rect
   id="rect444"
   width="13.156"
   height="13.157"
   x="419.20999"
   y="179.94"
   style="fill:none" />
			<path
   id="path446"
   d="m 423.01,184.73 c -0.217,0.112 -0.67,0.224 -1.24,0.224 -1.324,0 -2.313,-0.836 -2.313,-2.383 0,-1.477 0.996,-2.466 2.451,-2.466 0.578,0 0.955,0.126 1.115,0.209 l -0.153,0.495 c -0.224,-0.111 -0.55,-0.195 -0.94,-0.195 -1.101,0 -1.832,0.703 -1.832,1.936 0,1.156 0.662,1.889 1.797,1.889 0.377,0 0.752,-0.077 0.996,-0.195 l 0.11,0.49 z"
   inkscape:connector-curvature="0" />
			<path
   id="path448"
   d="m 423.74,179.94 h 0.613 v 4.945 h -0.613 v -4.94 z"
   inkscape:connector-curvature="0" />
			<path
   id="path450"
   d="m 425.98,181.33 v 0.26 h -1.004 v -0.26 h 1 z"
   inkscape:connector-curvature="0" />
		</g>
	</g>
	<g
   id="g468">
		<circle
   id="circle456"
   cy="209.27"
   r="6.566"
   cx="367.20999"
   style="fill:#ffff00;stroke:#000000" />
		<g
   id="g466">
			<rect
   id="rect458"
   width="13.156"
   height="13.157"
   x="363.98999"
   y="206.63"
   style="fill:none" />
			<path
   id="path460"
   d="m 367.79,211.43 c -0.217,0.111 -0.67,0.223 -1.24,0.223 -1.324,0 -2.313,-0.836 -2.313,-2.382 0,-1.477 0.996,-2.466 2.451,-2.466 0.578,0 0.955,0.125 1.115,0.209 l -0.153,0.494 c -0.224,-0.111 -0.55,-0.194 -0.94,-0.194 -1.101,0 -1.832,0.703 -1.832,1.937 0,1.156 0.662,1.887 1.797,1.887 0.377,0 0.752,-0.076 0.996,-0.194 l 0.11,0.48 z"
   inkscape:connector-curvature="0" />
			<path
   id="path462"
   d="m 368.52,206.63 h 0.613 v 4.945 h -0.613 v -4.95 z"
   inkscape:connector-curvature="0" />
			<path
   id="path464"
   d="m 370.76,208.03 v 0.261 h -1.004 v -0.261 h 1 z"
   inkscape:connector-curvature="0" />
		</g>
	</g>
	<g
   id="g482">
		<circle
   id="circle470"
   cy="123.91"
   r="6.566"
   cx="299.76001"
   style="fill:#ffff00;stroke:#000000" />
		<g
   id="g480">
			<rect
   id="rect472"
   width="13.156"
   height="13.157"
   x="296.54001"
   y="121.27"
   style="fill:none" />
			<path
   id="path474"
   d="m 300.34,126.07 c -0.216,0.111 -0.669,0.223 -1.24,0.223 -1.323,0 -2.313,-0.836 -2.313,-2.382 0,-1.477 0.996,-2.466 2.452,-2.466 0.578,0 0.954,0.125 1.114,0.209 l -0.152,0.494 c -0.224,-0.111 -0.551,-0.194 -0.941,-0.194 -1.1,0 -1.832,0.703 -1.832,1.937 0,1.156 0.662,1.887 1.797,1.887 0.377,0 0.753,-0.076 0.996,-0.194 l 0.11,0.48 z"
   inkscape:connector-curvature="0" />
			<path
   id="path476"
   d="m 301.07,121.27 h 0.613 v 4.945 h -0.613 v -4.95 z"
   inkscape:connector-curvature="0" />
			<path
   id="path478"
   d="m 303.31,122.67 v 0.261 h -1.004 v -0.261 h 1 z"
   inkscape:connector-curvature="0" />
		</g>
	</g>
	<g
   id="g496">
		<circle
   id="circle484"
   cy="166.60001"
   r="6.566"
   cx="301.20999"
   style="fill:#ffff00;stroke:#000000" />
		<g
   id="g494">
			<rect
   id="rect486"
   width="13.156"
   height="13.156"
   x="297.98999"
   y="163.96001"
   style="fill:none" />
			<path
   id="path488"
   d="m 301.79,168.76 c -0.215,0.112 -0.668,0.224 -1.239,0.224 -1.323,0 -2.313,-0.836 -2.313,-2.382 0,-1.477 0.995,-2.467 2.452,-2.467 0.578,0 0.953,0.126 1.113,0.209 l -0.152,0.495 c -0.223,-0.111 -0.551,-0.194 -0.94,-0.194 -1.101,0 -1.832,0.703 -1.832,1.936 0,1.156 0.661,1.888 1.797,1.888 0.376,0 0.753,-0.077 0.996,-0.194 l 0.11,0.47 z"
   inkscape:connector-curvature="0" />
			<path
   id="path490"
   d="m 302.51,163.96 h 0.613 v 4.945 h -0.613 v -4.94 z"
   inkscape:connector-curvature="0" />
			<path
   id="path492"
   d="m 304.76,165.36 v 0.26 h -1.003 v -0.26 h 1 z"
   inkscape:connector-curvature="0" />
		</g>
	</g>
	<g
   id="g516">
			<rect
   id="rect498"
   x="335.95999"
   y="144.46001"
   width="75.014"
   height="39.091"
   transform="matrix(0.9511,0.309,-0.309,0.9511,68.965,-107.39)"
   style="fill:none" />
		<path
   id="path500"
   d="m 343.64,136.95 c 0.16,-0.493 0.267,-0.886 0.372,-1.279 l 0.744,0.242 -0.206,0.767 0.029,0.009 c 0.405,-0.359 0.976,-0.634 1.759,-0.379 0.628,0.204 0.985,0.747 1.01,1.364 l 0.02,0.007 c 0.232,-0.224 0.488,-0.354 0.729,-0.437 0.35,-0.121 0.688,-0.14 1.132,0.004 0.629,0.204 1.415,0.909 0.888,2.533 l -0.896,2.754 -0.831,-0.27 0.86,-2.648 c 0.296,-0.909 0.129,-1.551 -0.547,-1.771 -0.493,-0.16 -0.978,0.078 -1.264,0.435 -0.079,0.112 -0.158,0.258 -0.206,0.403 l -0.941,2.899 -0.832,-0.271 0.911,-2.803 c 0.245,-0.754 0.089,-1.393 -0.559,-1.604 -0.521,-0.169 -1.057,0.127 -1.329,0.509 -0.09,0.11 -0.156,0.249 -0.203,0.394 l -0.917,2.822 -0.831,-0.27 1.12,-3.39 z"
   inkscape:connector-curvature="0" />
		<path
   id="path502"
   d="m 351.79,140.94 c -0.354,1.156 0.216,1.865 1.066,2.142 0.609,0.198 1.021,0.215 1.371,0.189 l -0.04,0.649 c -0.344,0.038 -0.919,0.033 -1.664,-0.209 -1.43,-0.465 -1.989,-1.705 -1.534,-3.106 0.462,-1.421 1.665,-2.259 3.027,-1.816 1.527,0.497 1.486,1.969 1.207,2.829 -0.057,0.174 -0.109,0.307 -0.16,0.396 l -3.29,-1.07 z m 2.68,0.2 c 0.183,-0.528 0.227,-1.455 -0.721,-1.763 -0.869,-0.282 -1.495,0.391 -1.754,0.959 l 2.47,0.8 z"
   inkscape:connector-curvature="0" />
		<path
   id="path504"
   d="m 356.55,141.14 c 0.16,-0.492 0.267,-0.886 0.372,-1.278 l 0.744,0.241 -0.206,0.767 0.029,0.01 c 0.405,-0.359 0.976,-0.634 1.759,-0.38 0.628,0.204 0.985,0.748 1.01,1.365 l 0.02,0.006 c 0.232,-0.224 0.488,-0.354 0.729,-0.436 0.35,-0.122 0.688,-0.141 1.132,0.004 0.629,0.204 1.415,0.908 0.888,2.532 l -0.896,2.755 -0.831,-0.271 0.86,-2.648 c 0.296,-0.908 0.129,-1.55 -0.547,-1.77 -0.493,-0.16 -0.978,0.078 -1.264,0.434 -0.079,0.112 -0.158,0.258 -0.206,0.403 l -0.941,2.899 -0.832,-0.27 0.911,-2.804 c 0.245,-0.754 0.089,-1.393 -0.559,-1.603 -0.521,-0.17 -1.057,0.127 -1.329,0.509 -0.09,0.109 -0.156,0.248 -0.203,0.394 l -0.917,2.822 -0.831,-0.271 1.12,-3.4 z"
   inkscape:connector-curvature="0" />
		<path
   id="path506"
   d="m 365.73,140.31 0.851,0.276 -0.951,2.93 0.019,0.006 c 0.47,-0.425 1.118,-0.577 1.872,-0.333 1.159,0.377 1.658,1.607 1.199,3.019 -0.547,1.683 -1.88,2.168 -2.924,1.829 -0.678,-0.221 -1.124,-0.654 -1.28,-1.389 l -0.02,-0.007 -0.3,0.758 -0.734,-0.238 c 0.133,-0.31 0.297,-0.78 0.432,-1.196 l 1.83,-5.66 z m -0.77,5.26 c -0.034,0.105 -0.06,0.215 -0.071,0.318 -0.027,0.643 0.343,1.212 0.952,1.41 0.898,0.292 1.655,-0.264 2.005,-1.337 0.308,-0.946 0.085,-1.906 -0.823,-2.201 -0.581,-0.188 -1.253,0.042 -1.625,0.626 -0.064,0.097 -0.12,0.207 -0.164,0.342 l -0.28,0.84 z"
   inkscape:connector-curvature="0" />
		<path
   id="path508"
   d="m 370.06,145.74 c 0.179,-0.552 0.323,-1.028 0.436,-1.472 l 0.744,0.241 -0.261,0.931 0.03,0.01 c 0.417,-0.56 1.067,-0.786 1.638,-0.601 0.086,0.028 0.151,0.06 0.222,0.104 l -0.257,0.793 c -0.094,-0.041 -0.177,-0.079 -0.293,-0.116 -0.6,-0.195 -1.173,0.121 -1.492,0.712 -0.061,0.119 -0.114,0.252 -0.161,0.396 l -0.811,2.494 -0.86,-0.26 1.06,-3.22 z"
   inkscape:connector-curvature="0" />
		<path
   id="path510"
   d="m 375.76,149.92 c -0.132,0.407 -0.242,0.809 -0.298,1.144 l -0.763,-0.248 0.114,-0.614 -0.029,-0.01 c -0.371,0.285 -0.989,0.448 -1.656,0.231 -0.947,-0.308 -1.215,-1.132 -0.994,-1.809 0.367,-1.131 1.574,-1.423 3.378,-0.826 l 0.031,-0.097 c 0.126,-0.387 0.248,-1.127 -0.711,-1.428 -0.445,-0.145 -0.94,-0.167 -1.341,-0.051 l -0.008,-0.634 c 0.465,-0.115 1.088,-0.095 1.678,0.097 1.44,0.469 1.472,1.558 1.167,2.495 l -0.57,1.76 z m -0.42,-1.54 c -0.923,-0.321 -2.029,-0.499 -2.324,0.409 -0.183,0.561 0.104,0.932 0.528,1.069 0.619,0.201 1.141,-0.057 1.405,-0.409 0.057,-0.077 0.099,-0.171 0.127,-0.258 l 0.25,-0.81 z"
   inkscape:connector-curvature="0" />
		<path
   id="path512"
   d="m 377.87,148.07 c 0.16,-0.493 0.276,-0.883 0.373,-1.278 l 0.754,0.245 -0.2,0.778 0.02,0.007 c 0.373,-0.36 1.056,-0.619 1.829,-0.367 0.647,0.21 1.528,0.924 1.007,2.528 l -0.908,2.793 -0.851,-0.276 0.876,-2.696 c 0.245,-0.754 0.172,-1.483 -0.63,-1.744 -0.551,-0.179 -1.114,0.076 -1.424,0.5 -0.073,0.093 -0.143,0.242 -0.187,0.377 l -0.917,2.822 -0.851,-0.276 1.11,-3.41 z"
   inkscape:connector-curvature="0" />
		<path
   id="path514"
   d="m 383.32,151.19 c -0.354,1.156 0.217,1.865 1.067,2.142 0.609,0.198 1.021,0.215 1.371,0.189 l -0.041,0.649 c -0.343,0.038 -0.918,0.032 -1.663,-0.209 -1.431,-0.465 -1.989,-1.705 -1.534,-3.106 0.462,-1.421 1.664,-2.259 3.026,-1.816 1.528,0.497 1.487,1.969 1.208,2.829 -0.057,0.174 -0.11,0.307 -0.161,0.396 l -3.29,-1.07 z m 2.68,0.19 c 0.182,-0.528 0.226,-1.455 -0.722,-1.763 -0.869,-0.282 -1.494,0.391 -1.754,0.959 l 2.47,0.8 z"
   inkscape:connector-curvature="0" />
	</g>
	<g
   id="g524">
		<g
   id="g522">
			<line
   id="line518"
   y1="146.00999"
   x2="236.12"
   x1="178.78"
   y2="146.00999"
   style="fill:none;stroke:#000000;stroke-width:9" />
			<path
   id="path520"
   d="m 231.52,146.01 -9.857,-16.214 0.554,-0.366 26.438,10.5 c 9.211,2.026 18.422,4.052 27.633,6.08 -9.211,2.025 -18.422,4.052 -27.633,6.08 l -26.438,10.5 -0.554,-0.276 9.86,-16.3 z"
   inkscape:connector-curvature="0" />
		</g>
	</g>
</g><g
     id="Layer_1">
	<polygon
   id="polygon527"
   points="111.52,79.389 42.849,58.258 42.849,0.677 111.52,21.808 "
   style="fill:#ffbf00;stroke:#000000" />
	<g
   id="g535"
   style="fill:none;stroke:#000000">
		<path
   id="path529"
   d="m 159.2,73.517 c 0,-4.971 3.022,-9.235 7.329,-11.057"
   inkscape:connector-curvature="0" />
		<path
   id="path531"
   d="m 159.18,73.329 v 137 c 0,6.627 -5.373,12 -12,12 h -126 c -6.627,0 -12,-5.373 -12,-12 v -137"
   inkscape:connector-curvature="0" />
		<path
   id="path533"
   d="m 0.253,61.851 c 5.139,1.356 8.929,6.038 8.929,11.604"
   inkscape:connector-curvature="0" />
	</g>
	<path
   id="path537"
   d="m 8.842,111.75 c 3.384,-1.417 6.425,-1.417 9.244,-2.677 1.037,-0.228 2.07,-0.443 3.099,-0.638 8.231,-1.555 16.181,-1.77 23.498,3.557 0.916,0.311 1.829,0.577 2.74,0.804 7.29,1.822 14.477,1.22 22.289,-1.317 1.069,-0.364 2.154,-0.776 3.278,-1.288 3.394,-1.952 6.671,-2.92 9.913,-3.233 0.649,-0.063 1.296,-0.099 1.943,-0.111 9.475,-1.513 16.568,6.486 25.523,6.664 0.921,0.164 1.844,0.285 2.77,0.363 2.777,0.237 5.572,0.098 8.344,-0.403 1.057,-0.19 2.109,-0.435 3.157,-0.729 6.444,-4.486 13.344,-4.852 20.21,-3.984 0.99,0.143 1.979,0.311 2.985,0.515 3.574,2.096 7.367,3.466 11.207,4.158"
   inkscape:connector-curvature="0"
   style="fill:none;stroke:#000000" />
	<g
   id="g549">
		<circle
   id="circle539"
   cy="49.981998"
   r="4.9060001"
   cx="55.723"
   style="fill:#ff0000;stroke:#000000" />
		<g
   id="g547">
			<rect
   id="rect541"
   width="10.426"
   height="10.426"
   x="53.27"
   y="47.988998"
   style="fill:none" />
			<path
   id="path543"
   d="m 54.17,48.188 v 1.557 h 1.799 v -1.557 h 0.486 v 3.72 H 55.969 V 50.164 H 54.17 v 1.744 h -0.486 v -3.72 z"
   inkscape:connector-curvature="0" />
			<path
   id="path545"
   d="m 57.931,48.357 v 0.756 h 0.727 v 0.193 h -0.727 v 0.763 h -0.206 v -0.763 h -0.727 v -0.193 h 0.727 v -0.756 z"
   inkscape:connector-curvature="0" />
		</g>
	</g>
	<g
   id="g561">
		<circle
   id="circle551"
   cy="31.996"
   r="4.9060001"
   cx="52.848999"
   style="fill:#ff0000;stroke:#000000" />
		<g
   id="g559">
			<rect
   id="rect553"
   width="10.426"
   height="10.426"
   x="50.396"
   y="30.003"
   style="fill:none" />
			<path
   id="path555"
   d="m 51.296,30.202 v 1.557 h 1.799 v -1.557 h 0.486 v 3.72 h -0.486 v -1.744 h -1.799 v 1.744 H 50.81 v -3.72 z"
   inkscape:connector-curvature="0" />
			<path
   id="path557"
   d="m 55.057,30.372 v 0.756 h 0.727 v 0.193 h -0.727 v 0.763 h -0.206 v -0.763 h -0.727 v -0.193 h 0.727 v -0.756 z"
   inkscape:connector-curvature="0" />
		</g>
	</g>
	<g
   id="g573">
		<circle
   id="circle563"
   cy="33.330002"
   r="4.9060001"
   cx="78.182999"
   style="fill:#ff0000;stroke:#000000" />
		<g
   id="g571">
			<rect
   id="rect565"
   width="10.426"
   height="10.426"
   x="75.728996"
   y="31.336"
   style="fill:none" />
			<path
   id="path567"
   d="m 76.628,31.536 v 1.557 h 1.8 v -1.557 h 0.485 v 3.72 h -0.485 v -1.744 h -1.8 v 1.744 h -0.485 v -3.72 z"
   inkscape:connector-curvature="0" />
			<path
   id="path569"
   d="m 80.389,31.706 v 0.756 h 0.727 v 0.193 h -0.727 v 0.763 h -0.206 v -0.763 h -0.727 v -0.193 h 0.727 v -0.756 z"
   inkscape:connector-curvature="0" />
		</g>
	</g>
	<g
   id="g585">
		<circle
   id="circle575"
   cy="43.328999"
   r="4.9060001"
   cx="98.783997"
   style="fill:#ff0000;stroke:#000000" />
		<g
   id="g583">
			<rect
   id="rect577"
   width="10.426"
   height="10.426"
   x="96.331001"
   y="41.334999"
   style="fill:none" />
			<path
   id="path579"
   d="m 97.23,41.534 v 1.557 h 1.8 v -1.557 h 0.485 v 3.72 H 99.03 V 43.51 h -1.8 v 1.744 h -0.485 v -3.72 z"
   inkscape:connector-curvature="0" />
			<path
   id="path581"
   d="m 100.99,41.704 v 0.756 h 0.728 v 0.193 h -0.728 v 0.763 h -0.206 v -0.763 h -0.727 V 42.46 h 0.727 v -0.756 h 0.21 z"
   inkscape:connector-curvature="0" />
		</g>
	</g>
	<g
   id="g597">
		<circle
   id="circle587"
   cy="49.285"
   r="4.9060001"
   cx="75.684998"
   style="fill:#ff0000;stroke:#000000" />
		<g
   id="g595">
			<rect
   id="rect589"
   width="10.425"
   height="10.426"
   x="73.231003"
   y="47.291"
   style="fill:none" />
			<path
   id="path591"
   d="m 74.131,47.49 v 1.557 H 75.93 V 47.49 h 0.486 v 3.72 H 75.93 v -1.744 h -1.799 v 1.744 h -0.486 v -3.72 z"
   inkscape:connector-curvature="0" />
			<path
   id="path593"
   d="m 77.892,47.66 v 0.756 h 0.727 v 0.193 h -0.727 v 0.763 h -0.206 v -0.763 h -0.727 v -0.193 h 0.727 V 47.66 Z"
   inkscape:connector-curvature="0" />
		</g>
	</g>
	<g
   id="g609">
		<circle
   id="circle599"
   cy="61.112"
   r="4.9060001"
   cx="90.789001"
   style="fill:#ff0000;stroke:#000000" />
		<g
   id="g607">
			<rect
   id="rect601"
   width="10.426"
   height="10.426"
   x="88.335999"
   y="59.118999"
   style="fill:none" />
			<path
   id="path603"
   d="m 89.235,59.318 v 1.557 h 1.8 v -1.557 h 0.485 v 3.72 h -0.485 v -1.744 h -1.8 v 1.744 H 88.75 v -3.72 z"
   inkscape:connector-curvature="0" />
			<path
   id="path605"
   d="m 92.996,59.488 v 0.756 h 0.728 v 0.193 H 92.996 V 61.2 H 92.79 v -0.763 h -0.727 v -0.193 h 0.727 v -0.756 z"
   inkscape:connector-curvature="0" />
		</g>
	</g>
	<g
   id="g623">
		<circle
   id="circle611"
   cy="129.64"
   r="7.316"
   cx="31.158001"
   style="fill:#00ff00;stroke:#000000" />
		<g
   id="g621">
			<rect
   id="rect613"
   width="13.157"
   height="13.158"
   x="26.937"
   y="126.75"
   style="fill:none" />
			<path
   id="path615"
   d="m 27.466,131.7 v -4.694 h 0.669 l 1.498,2.376 c 0.341,0.55 0.62,1.037 0.836,1.525 l 0.021,-0.008 c -0.056,-0.627 -0.069,-1.197 -0.069,-1.922 v -1.972 h 0.571 v 4.694 h -0.613 l -1.491,-2.382 c -0.327,-0.522 -0.641,-1.059 -0.871,-1.567 l -0.021,0.008 c 0.035,0.592 0.042,1.156 0.042,1.936 v 2.006 z"
   inkscape:connector-curvature="0" />
			<path
   id="path617"
   d="m 34.389,130.89 c 0,0.292 0.014,0.578 0.049,0.808 h -0.55 l -0.056,-0.424 h -0.021 c -0.181,0.264 -0.55,0.501 -1.031,0.501 -0.683,0 -1.031,-0.48 -1.031,-0.968 0,-0.815 0.725,-1.262 2.027,-1.254 v -0.07 c 0,-0.278 -0.076,-0.787 -0.766,-0.779 -0.32,0 -0.647,0.09 -0.884,0.25 l -0.14,-0.41 c 0.279,-0.175 0.69,-0.293 1.115,-0.293 1.038,0 1.289,0.703 1.289,1.379 v 1.25 z m -0.599,-0.91 c -0.668,-0.014 -1.428,0.105 -1.428,0.76 0,0.404 0.265,0.586 0.571,0.586 0.446,0 0.731,-0.279 0.829,-0.564 0.021,-0.063 0.028,-0.133 0.028,-0.195 v -0.6 z"
   inkscape:connector-curvature="0" />
			<path
   id="path619"
   d="m 36.203,127.22 v 0.953 h 0.918 v 0.244 h -0.918 v 0.963 h -0.26 v -0.963 h -0.917 v -0.244 h 0.917 v -0.953 z"
   inkscape:connector-curvature="0" />
		</g>
	</g>
	<g
   id="g637">
		<circle
   id="circle625"
   cy="148.98"
   r="7.316"
   cx="59.825001"
   style="fill:#00ff00;stroke:#000000" />
		<g
   id="g635">
			<rect
   id="rect627"
   width="13.157"
   height="13.157"
   x="55.604"
   y="146.08"
   style="fill:none" />
			<path
   id="path629"
   d="m 56.133,151.03 v -4.695 h 0.669 l 1.498,2.376 c 0.341,0.55 0.62,1.038 0.836,1.525 l 0.021,-0.007 c -0.056,-0.627 -0.069,-1.198 -0.069,-1.923 v -1.972 h 0.571 v 4.695 h -0.613 l -1.491,-2.383 c -0.327,-0.521 -0.641,-1.059 -0.871,-1.566 l -0.021,0.007 c 0.035,0.592 0.042,1.156 0.042,1.937 v 2.006 z"
   inkscape:connector-curvature="0" />
			<path
   id="path631"
   d="m 63.056,150.22 c 0,0.293 0.014,0.578 0.049,0.809 h -0.55 l -0.056,-0.425 h -0.021 c -0.181,0.265 -0.55,0.501 -1.031,0.501 -0.683,0 -1.031,-0.48 -1.031,-0.968 0,-0.815 0.725,-1.261 2.027,-1.254 v -0.069 c 0,-0.279 -0.076,-0.787 -0.766,-0.78 -0.32,0 -0.647,0.091 -0.884,0.251 l -0.14,-0.411 c 0.279,-0.175 0.69,-0.292 1.115,-0.292 1.038,0 1.289,0.703 1.289,1.379 v 1.26 z m -0.599,-0.91 c -0.668,-0.014 -1.428,0.104 -1.428,0.76 0,0.404 0.265,0.585 0.571,0.585 0.446,0 0.731,-0.278 0.829,-0.564 0.021,-0.063 0.028,-0.132 0.028,-0.194 v -0.6 z"
   inkscape:connector-curvature="0" />
			<path
   id="path633"
   d="m 64.87,146.55 v 0.954 h 0.918 v 0.244 H 64.87 v 0.962 h -0.26 v -0.962 h -0.917 v -0.244 h 0.917 v -0.954 z"
   inkscape:connector-curvature="0" />
		</g>
	</g>
	<g
   id="g651">
		<circle
   id="circle639"
   cy="161.64"
   r="7.316"
   cx="101.16"
   style="fill:#00ff00;stroke:#000000" />
		<g
   id="g649">
			<rect
   id="rect641"
   width="13.156"
   height="13.158"
   x="96.938004"
   y="158.75"
   style="fill:none" />
			<path
   id="path643"
   d="m 97.467,163.7 v -4.694 h 0.669 l 1.498,2.376 c 0.341,0.55 0.62,1.037 0.836,1.525 l 0.021,-0.008 c -0.056,-0.627 -0.069,-1.197 -0.069,-1.922 v -1.972 h 0.571 v 4.694 h -0.613 l -1.491,-2.382 c -0.327,-0.522 -0.641,-1.059 -0.871,-1.567 l -0.021,0.008 c 0.035,0.592 0.042,1.156 0.042,1.936 v 2.006 z"
   inkscape:connector-curvature="0" />
			<path
   id="path645"
   d="m 104.39,162.89 c 0,0.292 0.014,0.578 0.049,0.808 h -0.55 l -0.056,-0.424 h -0.021 c -0.181,0.264 -0.55,0.501 -1.031,0.501 -0.683,0 -1.031,-0.48 -1.031,-0.968 0,-0.815 0.725,-1.262 2.027,-1.254 v -0.07 c 0,-0.278 -0.077,-0.787 -0.767,-0.779 -0.32,0 -0.647,0.09 -0.884,0.25 l -0.14,-0.41 c 0.279,-0.175 0.69,-0.293 1.115,-0.293 1.038,0 1.289,0.703 1.289,1.379 v 1.25 z m -0.6,-0.91 c -0.668,-0.014 -1.428,0.105 -1.428,0.76 0,0.404 0.265,0.586 0.571,0.586 0.446,0 0.731,-0.279 0.829,-0.564 0.021,-0.063 0.028,-0.133 0.028,-0.195 v -0.6 z"
   inkscape:connector-curvature="0" />
			<path
   id="path647"
   d="m 106.2,159.22 v 0.953 h 0.918 v 0.244 H 106.2 v 0.963 h -0.26 v -0.963 h -0.917 v -0.244 h 0.917 v -0.953 z"
   inkscape:connector-curvature="0" />
		</g>
	</g>
	<g
   id="g665">
		<circle
   id="circle653"
   cy="161.33"
   r="7.316"
   cx="139.52"
   style="fill:#00ff00;stroke:#000000" />
		<g
   id="g663">
			<rect
   id="rect655"
   width="13.156"
   height="13.157"
   x="135.3"
   y="158.44"
   style="fill:none" />
			<path
   id="path657"
   d="m 135.82,163.38 v -4.695 h 0.669 l 1.498,2.376 c 0.341,0.55 0.62,1.038 0.836,1.525 l 0.021,-0.007 c -0.056,-0.627 -0.069,-1.198 -0.069,-1.923 v -1.972 h 0.571 v 4.695 h -0.613 l -1.491,-2.383 c -0.327,-0.521 -0.641,-1.059 -0.871,-1.566 l -0.021,0.007 c 0.035,0.592 0.042,1.156 0.042,1.937 v 2.006 h -0.58 z"
   inkscape:connector-curvature="0" />
			<path
   id="path659"
   d="m 142.75,162.58 c 0,0.293 0.014,0.578 0.049,0.809 h -0.55 l -0.056,-0.425 h -0.021 c -0.181,0.265 -0.55,0.501 -1.031,0.501 -0.683,0 -1.031,-0.48 -1.031,-0.968 0,-0.815 0.725,-1.261 2.027,-1.254 v -0.069 c 0,-0.279 -0.076,-0.787 -0.766,-0.78 -0.32,0 -0.647,0.091 -0.884,0.251 l -0.14,-0.411 c 0.279,-0.175 0.69,-0.292 1.115,-0.292 1.038,0 1.289,0.703 1.289,1.379 v 1.26 z m -0.6,-0.92 c -0.668,-0.014 -1.428,0.104 -1.428,0.76 0,0.404 0.265,0.585 0.571,0.585 0.446,0 0.731,-0.278 0.829,-0.564 0.021,-0.063 0.028,-0.132 0.028,-0.194 v -0.59 z"
   inkscape:connector-curvature="0" />
			<path
   id="path661"
   d="m 144.56,158.91 v 0.954 h 0.918 v 0.244 h -0.918 v 0.962 h -0.26 v -0.962 h -0.917 v -0.244 h 0.917 v -0.954 z"
   inkscape:connector-curvature="0" />
		</g>
	</g>
	<g
   id="g679">
		<circle
   id="circle667"
   cy="200.98"
   r="7.316"
   cx="36.492001"
   style="fill:#00ff00;stroke:#000000" />
		<g
   id="g677">
			<rect
   id="rect669"
   width="13.156"
   height="13.158"
   x="32.271"
   y="198.08"
   style="fill:none" />
			<path
   id="path671"
   d="m 32.8,203.03 v -4.694 h 0.669 l 1.498,2.376 c 0.341,0.55 0.62,1.037 0.836,1.525 l 0.021,-0.008 c -0.056,-0.627 -0.069,-1.197 -0.069,-1.922 v -1.972 h 0.571 v 4.694 h -0.613 l -1.491,-2.382 c -0.327,-0.522 -0.641,-1.059 -0.871,-1.567 l -0.021,0.008 c 0.035,0.592 0.042,1.156 0.042,1.936 v 2.006 z"
   inkscape:connector-curvature="0" />
			<path
   id="path673"
   d="m 39.724,202.22 c 0,0.292 0.014,0.578 0.049,0.808 h -0.55 l -0.056,-0.424 h -0.021 c -0.181,0.264 -0.55,0.501 -1.031,0.501 -0.683,0 -1.031,-0.48 -1.031,-0.968 0,-0.815 0.725,-1.262 2.027,-1.254 v -0.07 c 0,-0.278 -0.076,-0.787 -0.766,-0.779 -0.32,0 -0.647,0.09 -0.884,0.25 l -0.14,-0.41 c 0.279,-0.175 0.69,-0.293 1.115,-0.293 1.038,0 1.289,0.703 1.289,1.379 v 1.25 z m -0.599,-0.91 c -0.668,-0.014 -1.428,0.105 -1.428,0.76 0,0.404 0.265,0.586 0.571,0.586 0.446,0 0.731,-0.279 0.829,-0.564 0.021,-0.063 0.028,-0.133 0.028,-0.195 v -0.59 z"
   inkscape:connector-curvature="0" />
			<path
   id="path675"
   d="m 41.537,198.55 v 0.953 h 0.918 v 0.244 h -0.918 v 0.963 h -0.26 v -0.963 H 40.36 v -0.244 h 0.917 v -0.953 z"
   inkscape:connector-curvature="0" />
		</g>
	</g>
	<g
   id="g693">
		<circle
   id="circle681"
   cy="191.33"
   r="7.316"
   cx="127.52"
   style="fill:#00ff00;stroke:#000000" />
		<g
   id="g691">
			<rect
   id="rect683"
   width="13.158"
   height="13.156"
   x="123.29"
   y="188.44"
   style="fill:none" />
			<path
   id="path685"
   d="m 123.82,193.38 v -4.695 h 0.669 l 1.498,2.375 c 0.341,0.551 0.62,1.038 0.836,1.525 l 0.021,-0.007 c -0.056,-0.626 -0.069,-1.198 -0.069,-1.923 v -1.971 h 0.571 v 4.695 h -0.613 l -1.491,-2.383 c -0.327,-0.522 -0.641,-1.059 -0.871,-1.567 l -0.021,0.007 c 0.035,0.592 0.042,1.156 0.042,1.938 v 2.006 h -0.58 z"
   inkscape:connector-curvature="0" />
			<path
   id="path687"
   d="m 130.75,192.58 c 0,0.293 0.014,0.578 0.049,0.809 h -0.55 l -0.056,-0.426 h -0.021 c -0.181,0.266 -0.55,0.502 -1.031,0.502 -0.683,0 -1.031,-0.48 -1.031,-0.969 0,-0.814 0.725,-1.26 2.027,-1.254 v -0.068 c 0,-0.279 -0.076,-0.787 -0.766,-0.781 -0.32,0 -0.647,0.091 -0.884,0.251 l -0.14,-0.411 c 0.279,-0.174 0.69,-0.292 1.115,-0.292 1.038,0 1.289,0.703 1.289,1.379 v 1.26 z m -0.6,-0.92 c -0.668,-0.014 -1.428,0.104 -1.428,0.759 0,0.404 0.265,0.585 0.571,0.585 0.446,0 0.731,-0.278 0.829,-0.564 0.021,-0.063 0.028,-0.132 0.028,-0.194 v -0.59 z"
   inkscape:connector-curvature="0" />
			<path
   id="path689"
   d="m 132.56,188.9 v 0.955 h 0.918 v 0.243 h -0.918 v 0.962 h -0.26 v -0.962 h -0.917 v -0.243 H 132.3 V 188.9 Z"
   inkscape:connector-curvature="0" />
		</g>
	</g>
	<g
   id="g707">
		<circle
   id="circle695"
   cy="183.33"
   r="6.5669999"
   cx="68.181999"
   style="fill:#ffff00;stroke:#000000" />
		<g
   id="g705">
			<rect
   id="rect697"
   width="13.157"
   height="13.157"
   x="64.960999"
   y="180.69"
   style="fill:none" />
			<path
   id="path699"
   d="m 68.764,185.49 c -0.216,0.111 -0.669,0.223 -1.24,0.223 -1.324,0 -2.313,-0.836 -2.313,-2.382 0,-1.477 0.996,-2.466 2.452,-2.466 0.578,0 0.954,0.125 1.114,0.209 l -0.153,0.494 c -0.223,-0.111 -0.55,-0.194 -0.94,-0.194 -1.101,0 -1.832,0.703 -1.832,1.937 0,1.156 0.662,1.887 1.797,1.887 0.376,0 0.752,-0.076 0.996,-0.194 l 0.119,0.48 z"
   inkscape:connector-curvature="0" />
			<path
   id="path701"
   d="m 69.488,180.69 h 0.613 v 4.945 h -0.613 v -4.95 z"
   inkscape:connector-curvature="0" />
			<path
   id="path703"
   d="m 71.735,182.09 v 0.261 h -1.003 v -0.261 z"
   inkscape:connector-curvature="0" />
		</g>
	</g>
	<g
   id="g721">
		<circle
   id="circle709"
   cy="129.33"
   r="6.566"
   cx="86.182999"
   style="fill:#ffff00;stroke:#000000" />
		<g
   id="g719">
			<rect
   id="rect711"
   width="13.156"
   height="13.156"
   x="82.961998"
   y="126.69"
   style="fill:none" />
			<path
   id="path713"
   d="m 86.765,131.49 c -0.216,0.111 -0.669,0.223 -1.24,0.223 -1.324,0 -2.313,-0.836 -2.313,-2.383 0,-1.477 0.996,-2.465 2.452,-2.465 0.578,0 0.954,0.125 1.114,0.209 l -0.153,0.494 c -0.223,-0.111 -0.55,-0.195 -0.94,-0.195 -1.101,0 -1.832,0.703 -1.832,1.937 0,1.156 0.662,1.888 1.797,1.888 0.376,0 0.752,-0.076 0.996,-0.195 l 0.119,0.49 z"
   inkscape:connector-curvature="0" />
			<path
   id="path715"
   d="m 87.489,126.69 h 0.613 v 4.945 h -0.613 v -4.95 z"
   inkscape:connector-curvature="0" />
			<path
   id="path717"
   d="m 89.736,128.09 v 0.261 h -1.003 v -0.261 z"
   inkscape:connector-curvature="0" />
		</g>
	</g>
	<g
   id="g735">
		<circle
   id="circle723"
   cy="135.33"
   r="6.566"
   cx="126.85"
   style="fill:#ffff00;stroke:#000000" />
		<g
   id="g733">
			<rect
   id="rect725"
   width="13.156"
   height="13.156"
   x="123.63"
   y="132.69"
   style="fill:none" />
			<path
   id="path727"
   d="m 127.43,137.49 c -0.216,0.111 -0.669,0.223 -1.24,0.223 -1.324,0 -2.313,-0.836 -2.313,-2.383 0,-1.477 0.996,-2.465 2.452,-2.465 0.578,0 0.954,0.125 1.114,0.209 l -0.153,0.494 c -0.223,-0.111 -0.55,-0.195 -0.94,-0.195 -1.101,0 -1.832,0.703 -1.832,1.937 0,1.156 0.662,1.888 1.797,1.888 0.376,0 0.752,-0.076 0.996,-0.195 l 0.11,0.49 z"
   inkscape:connector-curvature="0" />
			<path
   id="path729"
   d="m 128.16,132.69 h 0.613 v 4.945 h -0.613 v -4.95 z"
   inkscape:connector-curvature="0" />
			<path
   id="path731"
   d="m 130.4,134.09 v 0.261 h -1.003 v -0.261 h 1 z"
   inkscape:connector-curvature="0" />
		</g>
	</g>
	<g
   id="g749">
		<circle
   id="circle737"
   cy="210.66"
   r="6.566"
   cx="92.182999"
   style="fill:#ffff00;stroke:#000000" />
		<g
   id="g747">
			<rect
   id="rect739"
   width="13.156"
   height="13.158"
   x="88.961998"
   y="208.02"
   style="fill:none" />
			<path
   id="path741"
   d="m 92.765,212.82 c -0.216,0.112 -0.669,0.224 -1.24,0.224 -1.324,0 -2.313,-0.836 -2.313,-2.382 0,-1.477 0.996,-2.467 2.452,-2.467 0.578,0 0.954,0.126 1.114,0.209 l -0.153,0.495 c -0.223,-0.111 -0.55,-0.194 -0.94,-0.194 -1.101,0 -1.832,0.703 -1.832,1.936 0,1.156 0.662,1.888 1.797,1.888 0.376,0 0.752,-0.077 0.996,-0.194 l 0.119,0.47 z"
   inkscape:connector-curvature="0" />
			<path
   id="path743"
   d="m 93.489,208.02 h 0.613 v 4.945 h -0.613 v -4.94 z"
   inkscape:connector-curvature="0" />
			<path
   id="path745"
   d="m 95.735,209.42 v 0.26 h -1.003 v -0.26 z"
   inkscape:connector-curvature="0" />
		</g>
	</g>
	<g
   id="g763">
		<circle
   id="circle751"
   cy="168"
   r="6.566"
   cx="26.849001"
   style="fill:#ffff00;stroke:#000000" />
		<g
   id="g761">
			<rect
   id="rect753"
   width="13.156"
   height="13.157"
   x="23.628"
   y="165.36"
   style="fill:none" />
			<path
   id="path755"
   d="m 27.431,170.16 c -0.216,0.111 -0.669,0.223 -1.24,0.223 -1.324,0 -2.313,-0.836 -2.313,-2.382 0,-1.477 0.996,-2.466 2.452,-2.466 0.578,0 0.954,0.125 1.114,0.209 l -0.153,0.494 c -0.223,-0.111 -0.55,-0.194 -0.94,-0.194 -1.101,0 -1.832,0.703 -1.832,1.937 0,1.156 0.662,1.887 1.797,1.887 0.376,0 0.752,-0.076 0.996,-0.194 l 0.119,0.48 z"
   inkscape:connector-curvature="0" />
			<path
   id="path757"
   d="m 28.155,165.36 h 0.613 v 4.945 h -0.613 v -4.94 z"
   inkscape:connector-curvature="0" />
			<path
   id="path759"
   d="m 30.401,166.76 v 0.261 h -1.003 v -0.261 z"
   inkscape:connector-curvature="0" />
		</g>
	</g>
	<g
   id="g783">
			<rect
   id="rect765"
   x="47.603001"
   y="16.525"
   width="75.014"
   height="39.091999"
   transform="matrix(0.9511,0.309,-0.309,0.9511,15.312,-24.535)"
   style="fill:none" />
		<path
   id="path767"
   d="M 55.284,9.008 C 55.444,8.515 55.55,8.122 55.657,7.73 l 0.743,0.241 -0.206,0.766 0.029,0.01 c 0.405,-0.36 0.976,-0.634 1.759,-0.379 0.628,0.204 0.985,0.747 1.009,1.364 l 0.02,0.006 C 59.244,9.514 59.5,9.384 59.74,9.302 c 0.35,-0.122 0.687,-0.14 1.131,0.004 0.629,0.205 1.416,0.909 0.888,2.533 l -0.896,2.755 -0.831,-0.27 0.86,-2.648 c 0.295,-0.909 0.129,-1.551 -0.547,-1.771 -0.493,-0.16 -0.978,0.078 -1.263,0.434 -0.08,0.113 -0.159,0.258 -0.206,0.403 l -0.942,2.9 -0.831,-0.271 0.911,-2.803 c 0.245,-0.754 0.089,-1.393 -0.558,-1.603 -0.522,-0.17 -1.057,0.127 -1.33,0.508 -0.089,0.11 -0.156,0.249 -0.203,0.394 l -0.917,2.823 -0.832,-0.27 z"
   inkscape:connector-curvature="0" />
		<path
   id="path769"
   d="m 63.433,13.002 c -0.354,1.157 0.216,1.866 1.067,2.142 0.609,0.198 1.021,0.214 1.371,0.189 l -0.041,0.649 c -0.343,0.038 -0.918,0.033 -1.663,-0.209 -1.43,-0.464 -1.99,-1.705 -1.534,-3.106 0.461,-1.42 1.664,-2.259 3.027,-1.816 1.528,0.496 1.487,1.968 1.207,2.829 -0.056,0.174 -0.11,0.307 -0.161,0.396 z m 2.682,0.199 c 0.182,-0.528 0.227,-1.455 -0.721,-1.763 -0.87,-0.282 -1.495,0.391 -1.754,0.958 z"
   inkscape:connector-curvature="0" />
		<path
   id="path771"
   d="m 68.188,13.201 c 0.16,-0.493 0.267,-0.886 0.373,-1.278 l 0.744,0.242 -0.206,0.766 0.029,0.01 c 0.405,-0.36 0.976,-0.634 1.759,-0.379 0.628,0.204 0.985,0.747 1.01,1.364 l 0.019,0.006 c 0.233,-0.224 0.489,-0.354 0.729,-0.436 0.35,-0.122 0.687,-0.14 1.131,0.004 0.629,0.204 1.416,0.908 0.888,2.532 l -0.895,2.755 -0.832,-0.27 0.86,-2.648 c 0.295,-0.909 0.129,-1.551 -0.547,-1.771 -0.493,-0.16 -0.977,0.079 -1.263,0.434 -0.08,0.113 -0.159,0.258 -0.206,0.403 l -0.942,2.9 -0.831,-0.271 0.911,-2.803 c 0.245,-0.754 0.089,-1.393 -0.558,-1.603 -0.522,-0.169 -1.057,0.127 -1.33,0.508 -0.089,0.11 -0.156,0.249 -0.203,0.394 l -0.917,2.823 -0.832,-0.27 z"
   inkscape:connector-curvature="0" />
		<path
   id="path773"
   d="m 77.372,12.37 0.851,0.276 -0.952,2.929 0.019,0.006 c 0.47,-0.424 1.118,-0.577 1.872,-0.332 1.159,0.376 1.658,1.607 1.199,3.018 -0.546,1.682 -1.88,2.168 -2.924,1.829 -0.677,-0.22 -1.124,-0.653 -1.28,-1.388 l -0.02,-0.006 -0.299,0.757 -0.735,-0.239 c 0.132,-0.31 0.296,-0.78 0.432,-1.195 z m -0.77,5.264 c -0.035,0.106 -0.06,0.216 -0.072,0.319 -0.027,0.643 0.343,1.212 0.953,1.41 0.898,0.292 1.656,-0.264 2.004,-1.337 0.308,-0.947 0.085,-1.906 -0.823,-2.201 -0.581,-0.188 -1.253,0.042 -1.625,0.626 -0.064,0.097 -0.121,0.207 -0.165,0.342 z"
   inkscape:connector-curvature="0" />
		<path
   id="path775"
   d="m 81.697,17.804 c 0.179,-0.551 0.324,-1.028 0.436,-1.472 l 0.744,0.242 -0.26,0.931 0.03,0.01 c 0.417,-0.56 1.067,-0.786 1.638,-0.601 0.086,0.028 0.151,0.06 0.222,0.104 l -0.258,0.792 c -0.093,-0.041 -0.177,-0.079 -0.292,-0.117 -0.599,-0.194 -1.172,0.122 -1.493,0.712 -0.06,0.119 -0.114,0.252 -0.161,0.396 l -0.81,2.494 -0.851,-0.277 z"
   inkscape:connector-curvature="0" />
		<path
   id="path777"
   d="m 87.405,21.978 c -0.132,0.406 -0.242,0.809 -0.297,1.143 l -0.764,-0.248 0.115,-0.615 -0.029,-0.009 c -0.371,0.286 -0.99,0.448 -1.657,0.231 -0.947,-0.308 -1.214,-1.132 -0.995,-1.809 0.368,-1.131 1.575,-1.423 3.379,-0.826 l 0.031,-0.096 c 0.125,-0.387 0.248,-1.127 -0.712,-1.428 -0.445,-0.145 -0.939,-0.167 -1.341,-0.051 l -0.008,-0.633 c 0.465,-0.116 1.088,-0.095 1.678,0.097 1.44,0.468 1.472,1.557 1.167,2.495 z m -0.42,-1.537 c -0.922,-0.321 -2.029,-0.499 -2.324,0.41 -0.182,0.561 0.104,0.931 0.528,1.069 0.62,0.201 1.141,-0.057 1.405,-0.409 0.057,-0.078 0.099,-0.171 0.127,-0.258 z"
   inkscape:connector-curvature="0" />
		<path
   id="path779"
   d="m 89.512,20.129 c 0.16,-0.493 0.275,-0.883 0.372,-1.279 l 0.754,0.245 -0.2,0.779 0.02,0.006 c 0.373,-0.36 1.055,-0.619 1.829,-0.367 0.647,0.21 1.527,0.923 1.006,2.528 l -0.907,2.793 -0.851,-0.277 0.876,-2.696 c 0.245,-0.754 0.172,-1.483 -0.631,-1.744 -0.551,-0.179 -1.114,0.076 -1.423,0.5 -0.073,0.094 -0.142,0.242 -0.186,0.377 l -0.917,2.823 -0.851,-0.277 z"
   inkscape:connector-curvature="0" />
		<path
   id="path781"
   d="m 94.964,23.248 c -0.354,1.157 0.216,1.866 1.067,2.142 0.609,0.198 1.021,0.214 1.371,0.188 l -0.041,0.65 c -0.343,0.038 -0.918,0.033 -1.663,-0.209 -1.43,-0.464 -1.99,-1.705 -1.534,-3.106 0.461,-1.42 1.664,-2.259 3.027,-1.816 1.528,0.497 1.487,1.969 1.207,2.829 -0.056,0.174 -0.109,0.306 -0.161,0.396 z m 2.682,0.198 c 0.182,-0.529 0.227,-1.455 -0.721,-1.763 -0.87,-0.282 -1.495,0.391 -1.754,0.958 z"
   inkscape:connector-curvature="0" />
	</g>
	<polygon
   id="polygon785"
   points="399.88,207.33 331.21,186.2 331.21,128.62 399.88,149.75 "
   style="fill:#ffbf00;stroke:#000000" />
	<g
   id="g793"
   style="fill:none;stroke:#000000">
		<path
   id="path787"
   d="m 438.23,73.456 c 0,-4.971 3.022,-9.235 7.329,-11.057"
   inkscape:connector-curvature="0" />
		<path
   id="path789"
   d="m 438.21,73.268 v 137 c 0,6.627 -5.373,12 -12,12 h -126 c -6.627,0 -12,-5.373 -12,-12 v -137"
   inkscape:connector-curvature="0" />
		<path
   id="path791"
   d="m 279.28,61.79 c 5.139,1.356 8.928,6.037 8.928,11.604"
   inkscape:connector-curvature="0" />
	</g>
	<path
   id="path795"
   d="m 287.87,111.68 c 3.385,-1.416 6.426,-1.416 9.244,-2.677 1.037,-0.228 2.07,-0.443 3.1,-0.638 8.23,-1.555 16.181,-1.77 23.498,3.557 0.915,0.311 1.828,0.576 2.739,0.805 7.29,1.822 14.478,1.219 22.288,-1.317 1.069,-0.364 2.154,-0.776 3.278,-1.288 3.394,-1.952 6.671,-2.92 9.913,-3.232 0.649,-0.063 1.296,-0.1 1.943,-0.111 9.475,-1.514 16.568,6.486 25.523,6.664 0.921,0.164 1.844,0.284 2.77,0.363 2.777,0.236 5.572,0.097 8.344,-0.404 1.057,-0.19 2.109,-0.434 3.157,-0.729 6.444,-4.485 13.344,-4.852 20.21,-3.983 0.99,0.143 1.979,0.312 2.985,0.515 3.574,2.096 7.367,3.467 11.207,4.157"
   inkscape:connector-curvature="0"
   style="fill:none;stroke:#000000" />
	<g
   id="g807">
		<circle
   id="circle797"
   cy="158.72"
   r="4.9060001"
   cx="419.78"
   style="fill:#ff0000;stroke:#000000" />
		<g
   id="g805">
			<rect
   id="rect799"
   width="10.426"
   height="10.426"
   x="417.32999"
   y="156.72"
   style="fill:none" />
			<path
   id="path801"
   d="m 418.23,156.92 v 1.557 h 1.799 v -1.557 h 0.486 v 3.721 h -0.486 v -1.744 h -1.799 v 1.744 h -0.486 v -3.721 h 0.49 z"
   inkscape:connector-curvature="0" />
			<path
   id="path803"
   d="m 421.99,157.09 v 0.757 h 0.728 v 0.192 h -0.728 v 0.764 h -0.206 v -0.764 h -0.727 v -0.192 h 0.727 v -0.757 h 0.21 z"
   inkscape:connector-curvature="0" />
		</g>
	</g>
	<g
   id="g819">
		<circle
   id="circle809"
   cy="208.72"
   r="4.9060001"
   cx="415.78"
   style="fill:#ff0000;stroke:#000000" />
		<g
   id="g817">
			<rect
   id="rect811"
   width="10.426"
   height="10.426"
   x="413.32999"
   y="206.72"
   style="fill:none" />
			<path
   id="path813"
   d="m 414.23,206.92 v 1.557 h 1.799 v -1.557 h 0.485 v 3.72 h -0.485 v -1.744 h -1.799 v 1.744 h -0.486 v -3.72 h 0.48 z"
   inkscape:connector-curvature="0" />
			<path
   id="path815"
   d="m 417.99,207.09 v 0.757 h 0.728 v 0.192 h -0.728 v 0.763 h -0.205 v -0.763 h -0.728 v -0.192 h 0.728 v -0.757 h 0.21 z"
   inkscape:connector-curvature="0" />
		</g>
	</g>
	<g
   id="g831">
		<circle
   id="circle821"
   cy="203.7"
   r="4.9060001"
   cx="335.20999"
   style="fill:#ff0000;stroke:#000000" />
		<g
   id="g829">
			<rect
   id="rect823"
   width="10.426"
   height="10.426"
   x="332.75"
   y="201.7"
   style="fill:none" />
			<path
   id="path825"
   d="m 333.65,201.9 v 1.557 h 1.799 V 201.9 h 0.486 v 3.721 h -0.486 v -1.744 h -1.799 v 1.744 h -0.486 V 201.9 h 0.49 z"
   inkscape:connector-curvature="0" />
			<path
   id="path827"
   d="m 337.42,202.07 v 0.757 h 0.728 v 0.192 h -0.728 v 0.764 h -0.206 v -0.764 h -0.727 v -0.192 h 0.727 v -0.757 h 0.21 z"
   inkscape:connector-curvature="0" />
		</g>
	</g>
	<g
   id="g843">
		<circle
   id="circle833"
   cy="120.6"
   r="4.9060001"
   cx="358.98999"
   style="fill:#ff0000;stroke:#000000" />
		<g
   id="g841">
			<rect
   id="rect835"
   width="10.426"
   height="10.426"
   x="356.54001"
   y="118.6"
   style="fill:none" />
			<path
   id="path837"
   d="m 357.44,118.8 v 1.557 h 1.8 V 118.8 h 0.485 v 3.721 h -0.485 v -1.744 h -1.8 v 1.744 h -0.485 V 118.8 h 0.48 z"
   inkscape:connector-curvature="0" />
			<path
   id="path839"
   d="m 361.2,118.97 v 0.757 h 0.728 v 0.192 H 361.2 v 0.764 h -0.206 v -0.764 h -0.727 v -0.192 h 0.727 v -0.757 h 0.21 z"
   inkscape:connector-curvature="0" />
		</g>
	</g>
	<g
   id="g855">
		<circle
   id="circle845"
   cy="181.38"
   r="4.9060001"
   cx="314.45001"
   style="fill:#ff0000;stroke:#000000" />
		<g
   id="g853">
			<rect
   id="rect847"
   width="10.425"
   height="10.426"
   x="312"
   y="179.39"
   style="fill:none" />
			<path
   id="path849"
   d="m 312.9,179.59 v 1.557 h 1.799 v -1.557 h 0.486 v 3.721 h -0.486 v -1.744 H 312.9 v 1.744 h -0.485 v -3.721 h 0.48 z"
   inkscape:connector-curvature="0" />
			<path
   id="path851"
   d="m 316.66,179.76 v 0.757 h 0.727 v 0.192 h -0.727 v 0.764 h -0.207 v -0.764 h -0.727 v -0.192 h 0.727 v -0.757 h 0.21 z"
   inkscape:connector-curvature="0" />
		</g>
	</g>
	<g
   id="g867">
		<circle
   id="circle857"
   cy="143.16"
   r="4.9060001"
   cx="314.39001"
   style="fill:#ff0000;stroke:#000000" />
		<g
   id="g865">
			<rect
   id="rect859"
   width="10.426"
   height="10.426"
   x="311.94"
   y="141.17"
   style="fill:none" />
			<path
   id="path861"
   d="m 312.83,141.37 v 1.557 h 1.8 v -1.557 h 0.485 v 3.721 h -0.485 v -1.744 h -1.8 v 1.744 h -0.485 v -3.721 h 0.47 z"
   inkscape:connector-curvature="0" />
			<path
   id="path863"
   d="m 316.6,141.54 v 0.757 h 0.728 v 0.192 H 316.6 v 0.764 h -0.206 v -0.764 h -0.727 v -0.192 h 0.727 v -0.757 h 0.21 z"
   inkscape:connector-curvature="0" />
		</g>
	</g>
	<g
   id="g881">
		<circle
   id="circle869"
   cy="128.91"
   r="7.316"
   cx="416.85001"
   style="fill:#00ff00;stroke:#000000" />
		<g
   id="g879">
			<rect
   id="rect871"
   width="13.158"
   height="13.157"
   x="412.63"
   y="126.02"
   style="fill:none" />
			<path
   id="path873"
   d="m 413.16,130.97 v -4.694 h 0.67 l 1.497,2.375 c 0.341,0.551 0.62,1.037 0.836,1.525 l 0.021,-0.008 c -0.056,-0.626 -0.069,-1.197 -0.069,-1.922 v -1.971 h 0.571 v 4.694 h -0.613 l -1.49,-2.382 c -0.328,-0.523 -0.641,-1.059 -0.871,-1.568 l -0.021,0.008 c 0.035,0.592 0.043,1.156 0.043,1.937 v 2.006 h -0.58 z"
   inkscape:connector-curvature="0" />
			<path
   id="path875"
   d="m 420.08,130.16 c 0,0.292 0.014,0.578 0.049,0.808 h -0.551 l -0.055,-0.425 h -0.021 c -0.182,0.265 -0.551,0.502 -1.031,0.502 -0.682,0 -1.031,-0.48 -1.031,-0.969 0,-0.814 0.725,-1.261 2.027,-1.254 v -0.069 c 0,-0.278 -0.076,-0.787 -0.766,-0.78 -0.32,0 -0.648,0.09 -0.885,0.25 l -0.14,-0.41 c 0.278,-0.174 0.69,-0.293 1.114,-0.293 1.038,0 1.289,0.703 1.289,1.379 v 1.26 z m -0.6,-0.91 c -0.668,-0.014 -1.428,0.104 -1.428,0.759 0,0.404 0.266,0.586 0.571,0.586 0.446,0 0.731,-0.279 0.829,-0.564 0.021,-0.063 0.027,-0.133 0.027,-0.195 v -0.59 z"
   inkscape:connector-curvature="0" />
			<path
   id="path877"
   d="m 421.9,126.49 v 0.954 h 0.918 v 0.243 H 421.9 v 0.963 h -0.26 v -0.963 h -0.917 v -0.243 h 0.917 v -0.954 z"
   inkscape:connector-curvature="0" />
		</g>
	</g>
	<g
   id="g895">
		<circle
   id="circle883"
   cy="186.92"
   r="7.316"
   cx="382.85001"
   style="fill:#00ff00;stroke:#000000" />
		<g
   id="g893">
			<rect
   id="rect885"
   width="13.158"
   height="13.156"
   x="378.63"
   y="184.02"
   style="fill:none" />
			<path
   id="path887"
   d="m 379.16,188.97 v -4.695 h 0.67 l 1.497,2.375 c 0.341,0.551 0.62,1.038 0.836,1.525 l 0.021,-0.007 c -0.056,-0.626 -0.069,-1.198 -0.069,-1.923 v -1.971 h 0.571 v 4.695 h -0.613 l -1.49,-2.383 c -0.328,-0.522 -0.641,-1.059 -0.871,-1.567 l -0.021,0.007 c 0.035,0.592 0.043,1.156 0.043,1.938 v 2.006 h -0.58 z"
   inkscape:connector-curvature="0" />
			<path
   id="path889"
   d="m 386.08,188.16 c 0,0.293 0.014,0.578 0.049,0.809 h -0.551 l -0.055,-0.426 h -0.021 c -0.182,0.266 -0.551,0.502 -1.031,0.502 -0.682,0 -1.031,-0.48 -1.031,-0.969 0,-0.814 0.725,-1.26 2.027,-1.254 v -0.068 c 0,-0.279 -0.076,-0.787 -0.766,-0.781 -0.32,0 -0.648,0.091 -0.885,0.251 l -0.14,-0.411 c 0.278,-0.174 0.69,-0.292 1.114,-0.292 1.038,0 1.289,0.703 1.289,1.379 v 1.26 z m -0.6,-0.91 c -0.668,-0.014 -1.428,0.104 -1.428,0.759 0,0.404 0.266,0.585 0.571,0.585 0.446,0 0.731,-0.278 0.829,-0.564 0.021,-0.063 0.027,-0.132 0.027,-0.194 v -0.6 z"
   inkscape:connector-curvature="0" />
			<path
   id="path891"
   d="m 387.9,184.49 v 0.955 h 0.918 v 0.243 H 387.9 v 0.962 h -0.26 v -0.962 h -0.917 v -0.243 h 0.917 v -0.955 z"
   inkscape:connector-curvature="0" />
		</g>
	</g>
	<g
   id="g909">
		<circle
   id="circle897"
   cy="155.58"
   r="7.316"
   cx="344.17999"
   style="fill:#00ff00;stroke:#000000" />
		<g
   id="g907">
			<rect
   id="rect899"
   width="13.156"
   height="13.157"
   x="339.95999"
   y="152.69"
   style="fill:none" />
			<path
   id="path901"
   d="m 340.49,157.64 v -4.695 h 0.67 l 1.497,2.376 c 0.341,0.55 0.62,1.038 0.836,1.525 l 0.021,-0.007 c -0.056,-0.627 -0.069,-1.198 -0.069,-1.923 v -1.972 h 0.571 v 4.695 h -0.613 l -1.49,-2.383 c -0.328,-0.521 -0.641,-1.059 -0.871,-1.566 l -0.021,0.007 c 0.035,0.592 0.043,1.156 0.043,1.937 v 2.006 h -0.58 z"
   inkscape:connector-curvature="0" />
			<path
   id="path903"
   d="m 347.42,156.83 c 0,0.293 0.014,0.578 0.049,0.809 h -0.551 l -0.055,-0.425 h -0.021 c -0.182,0.265 -0.551,0.501 -1.031,0.501 -0.682,0 -1.031,-0.48 -1.031,-0.968 0,-0.815 0.725,-1.261 2.027,-1.254 v -0.069 c 0,-0.279 -0.076,-0.787 -0.766,-0.78 -0.32,0 -0.648,0.091 -0.885,0.251 l -0.14,-0.411 c 0.278,-0.175 0.69,-0.292 1.114,-0.292 1.038,0 1.289,0.703 1.289,1.379 v 1.25 z m -0.6,-0.91 c -0.668,-0.014 -1.428,0.104 -1.428,0.76 0,0.404 0.266,0.585 0.571,0.585 0.446,0 0.731,-0.278 0.829,-0.564 0.021,-0.063 0.027,-0.132 0.027,-0.194 v -0.59 z"
   inkscape:connector-curvature="0" />
			<path
   id="path905"
   d="m 349.23,153.16 v 0.954 h 0.918 v 0.244 h -0.918 v 0.962 h -0.26 v -0.962 h -0.917 v -0.244 h 0.917 v -0.954 z"
   inkscape:connector-curvature="0" />
		</g>
	</g>
	<g
   id="g923">
		<circle
   id="circle911"
   cy="165.27"
   r="7.316"
   cx="377.20999"
   style="fill:#00ff00;stroke:#000000" />
		<g
   id="g921">
			<rect
   id="rect913"
   width="13.156"
   height="13.156"
   x="372.98999"
   y="162.38"
   style="fill:none" />
			<path
   id="path915"
   d="m 373.52,167.32 v -4.694 h 0.67 l 1.497,2.376 c 0.341,0.55 0.62,1.037 0.836,1.525 l 0.021,-0.008 c -0.056,-0.627 -0.069,-1.197 -0.069,-1.922 v -1.972 h 0.571 v 4.694 h -0.613 l -1.49,-2.382 c -0.328,-0.522 -0.641,-1.059 -0.871,-1.567 l -0.021,0.008 c 0.035,0.592 0.043,1.156 0.043,1.936 v 2.006 h -0.58 z"
   inkscape:connector-curvature="0" />
			<path
   id="path917"
   d="m 380.44,166.52 c 0,0.292 0.014,0.578 0.049,0.808 h -0.551 l -0.055,-0.424 h -0.021 c -0.182,0.264 -0.551,0.501 -1.031,0.501 -0.682,0 -1.031,-0.48 -1.031,-0.968 0,-0.815 0.725,-1.262 2.027,-1.254 v -0.07 c 0,-0.278 -0.076,-0.787 -0.766,-0.779 -0.32,0 -0.648,0.09 -0.885,0.25 l -0.14,-0.41 c 0.278,-0.175 0.69,-0.293 1.114,-0.293 1.038,0 1.289,0.703 1.289,1.379 v 1.25 z m -0.6,-0.92 c -0.668,-0.014 -1.428,0.105 -1.428,0.76 0,0.404 0.266,0.586 0.571,0.586 0.446,0 0.731,-0.279 0.829,-0.564 0.021,-0.063 0.027,-0.133 0.027,-0.195 v -0.6 z"
   inkscape:connector-curvature="0" />
			<path
   id="path919"
   d="m 382.25,162.84 v 0.953 h 0.918 v 0.244 H 382.25 V 165 h -0.26 v -0.963 h -0.917 v -0.244 h 0.917 v -0.953 z"
   inkscape:connector-curvature="0" />
		</g>
	</g>
	<g
   id="g937">
		<circle
   id="circle925"
   cy="206.92"
   r="7.316"
   cx="307.51999"
   style="fill:#00ff00;stroke:#000000" />
		<g
   id="g935">
			<rect
   id="rect927"
   width="13.156"
   height="13.157"
   x="303.29999"
   y="204.02"
   style="fill:none" />
			<path
   id="path929"
   d="m 303.83,208.97 v -4.695 h 0.669 l 1.497,2.376 c 0.342,0.55 0.62,1.038 0.836,1.525 l 0.021,-0.007 c -0.057,-0.627 -0.07,-1.198 -0.07,-1.923 v -1.972 h 0.571 v 4.695 h -0.612 l -1.491,-2.383 c -0.327,-0.521 -0.641,-1.059 -0.87,-1.566 l -0.021,0.007 c 0.035,0.592 0.042,1.156 0.042,1.937 v 2.006 h -0.58 z"
   inkscape:connector-curvature="0" />
			<path
   id="path931"
   d="m 310.75,208.16 c 0,0.293 0.014,0.578 0.049,0.809 h -0.551 l -0.056,-0.425 h -0.021 c -0.182,0.265 -0.551,0.501 -1.031,0.501 -0.683,0 -1.031,-0.48 -1.031,-0.968 0,-0.815 0.725,-1.261 2.027,-1.254 v -0.069 c 0,-0.279 -0.076,-0.787 -0.767,-0.78 -0.32,0 -0.647,0.091 -0.884,0.251 l -0.141,-0.411 c 0.279,-0.175 0.69,-0.292 1.115,-0.292 1.037,0 1.289,0.703 1.289,1.379 v 1.26 z m -0.6,-0.91 c -0.668,-0.014 -1.428,0.104 -1.428,0.76 0,0.404 0.265,0.585 0.57,0.585 0.446,0 0.732,-0.278 0.83,-0.564 0.021,-0.063 0.027,-0.132 0.027,-0.194 v -0.6 z"
   inkscape:connector-curvature="0" />
			<path
   id="path933"
   d="m 312.56,204.49 v 0.954 h 0.918 v 0.244 h -0.918 v 0.962 h -0.26 v -0.962 h -0.917 v -0.244 h 0.917 v -0.954 z"
   inkscape:connector-curvature="0" />
		</g>
	</g>
	<g
   id="g951">
		<circle
   id="circle939"
   cy="176.60001"
   r="7.316"
   cx="355.88"
   style="fill:#00ff00;stroke:#000000" />
		<g
   id="g949">
			<rect
   id="rect941"
   width="13.158"
   height="13.157"
   x="351.64999"
   y="173.71001"
   style="fill:none" />
			<path
   id="path943"
   d="m 352.18,178.66 v -4.694 h 0.669 l 1.498,2.375 c 0.341,0.551 0.619,1.037 0.836,1.525 l 0.02,-0.008 c -0.055,-0.626 -0.068,-1.197 -0.068,-1.922 v -1.971 h 0.57 v 4.694 h -0.613 l -1.49,-2.382 c -0.327,-0.523 -0.641,-1.059 -0.871,-1.568 l -0.021,0.008 c 0.035,0.592 0.042,1.156 0.042,1.937 v 2.006 h -0.58 z"
   inkscape:connector-curvature="0" />
			<path
   id="path945"
   d="m 359.1,177.85 c 0,0.292 0.014,0.578 0.049,0.808 h -0.55 l -0.056,-0.425 h -0.021 c -0.181,0.265 -0.55,0.502 -1.03,0.502 -0.683,0 -1.031,-0.48 -1.031,-0.969 0,-0.814 0.725,-1.261 2.026,-1.254 v -0.069 c 0,-0.278 -0.076,-0.787 -0.766,-0.78 -0.32,0 -0.647,0.09 -0.885,0.25 l -0.139,-0.41 c 0.278,-0.174 0.689,-0.293 1.114,-0.293 1.038,0 1.288,0.703 1.288,1.379 v 1.25 z m -0.59,-0.91 c -0.669,-0.014 -1.428,0.104 -1.428,0.759 0,0.404 0.265,0.586 0.571,0.586 0.445,0 0.73,-0.279 0.828,-0.564 0.021,-0.063 0.028,-0.133 0.028,-0.195 v -0.6 z"
   inkscape:connector-curvature="0" />
			<path
   id="path947"
   d="m 360.92,174.18 v 0.954 h 0.918 v 0.243 h -0.918 v 0.963 h -0.26 v -0.963 h -0.918 v -0.243 h 0.918 v -0.954 z"
   inkscape:connector-curvature="0" />
		</g>
	</g>
	<g
   id="g965">
		<circle
   id="circle953"
   cy="127.27"
   r="6.5669999"
   cx="389.88"
   style="fill:#ffff00;stroke:#000000" />
		<g
   id="g963">
			<rect
   id="rect955"
   width="13.158"
   height="13.156"
   x="386.64999"
   y="124.63"
   style="fill:none" />
			<path
   id="path957"
   d="m 390.46,129.43 c -0.216,0.112 -0.669,0.224 -1.239,0.224 -1.324,0 -2.313,-0.836 -2.313,-2.382 0,-1.477 0.995,-2.467 2.451,-2.467 0.578,0 0.954,0.126 1.114,0.209 l -0.153,0.495 c -0.223,-0.111 -0.55,-0.194 -0.939,-0.194 -1.102,0 -1.832,0.703 -1.832,1.936 0,1.156 0.661,1.888 1.797,1.888 0.376,0 0.752,-0.077 0.996,-0.194 l 0.11,0.48 z"
   inkscape:connector-curvature="0" />
			<path
   id="path959"
   d="m 391.18,124.63 h 0.613 v 4.945 h -0.613 v -4.95 z"
   inkscape:connector-curvature="0" />
			<path
   id="path961"
   d="m 393.43,126.03 v 0.26 h -1.003 v -0.26 h 1 z"
   inkscape:connector-curvature="0" />
		</g>
	</g>
	<g
   id="g979">
		<circle
   id="circle967"
   cy="182.58"
   r="6.566"
   cx="422.42999"
   style="fill:#ffff00;stroke:#000000" />
		<g
   id="g977">
			<rect
   id="rect969"
   width="13.156"
   height="13.157"
   x="419.20999"
   y="179.94"
   style="fill:none" />
			<path
   id="path971"
   d="m 423.01,184.73 c -0.217,0.112 -0.67,0.224 -1.24,0.224 -1.324,0 -2.313,-0.836 -2.313,-2.383 0,-1.477 0.996,-2.466 2.451,-2.466 0.578,0 0.955,0.126 1.115,0.209 l -0.153,0.495 c -0.224,-0.111 -0.55,-0.195 -0.94,-0.195 -1.101,0 -1.832,0.703 -1.832,1.936 0,1.156 0.662,1.889 1.797,1.889 0.377,0 0.752,-0.077 0.996,-0.195 l 0.11,0.49 z"
   inkscape:connector-curvature="0" />
			<path
   id="path973"
   d="m 423.74,179.94 h 0.613 v 4.945 h -0.613 v -4.94 z"
   inkscape:connector-curvature="0" />
			<path
   id="path975"
   d="m 425.98,181.33 v 0.26 h -1.004 v -0.26 h 1 z"
   inkscape:connector-curvature="0" />
		</g>
	</g>
	<g
   id="g993">
		<circle
   id="circle981"
   cy="209.27"
   r="6.566"
   cx="367.20999"
   style="fill:#ffff00;stroke:#000000" />
		<g
   id="g991">
			<rect
   id="rect983"
   width="13.156"
   height="13.157"
   x="363.98999"
   y="206.63"
   style="fill:none" />
			<path
   id="path985"
   d="m 367.79,211.43 c -0.217,0.111 -0.67,0.223 -1.24,0.223 -1.324,0 -2.313,-0.836 -2.313,-2.382 0,-1.477 0.996,-2.466 2.451,-2.466 0.578,0 0.955,0.125 1.115,0.209 l -0.153,0.494 c -0.224,-0.111 -0.55,-0.194 -0.94,-0.194 -1.101,0 -1.832,0.703 -1.832,1.937 0,1.156 0.662,1.887 1.797,1.887 0.377,0 0.752,-0.076 0.996,-0.194 l 0.11,0.48 z"
   inkscape:connector-curvature="0" />
			<path
   id="path987"
   d="m 368.52,206.63 h 0.613 v 4.945 h -0.613 v -4.95 z"
   inkscape:connector-curvature="0" />
			<path
   id="path989"
   d="m 370.76,208.03 v 0.261 h -1.004 v -0.261 h 1 z"
   inkscape:connector-curvature="0" />
		</g>
	</g>
	<g
   id="g1007">
		<circle
   id="circle995"
   cy="123.91"
   r="6.566"
   cx="299.76001"
   style="fill:#ffff00;stroke:#000000" />
		<g
   id="g1005">
			<rect
   id="rect997"
   width="13.156"
   height="13.157"
   x="296.54001"
   y="121.27"
   style="fill:none" />
			<path
   id="path999"
   d="m 300.34,126.07 c -0.216,0.111 -0.669,0.223 -1.24,0.223 -1.323,0 -2.313,-0.836 -2.313,-2.382 0,-1.477 0.996,-2.466 2.452,-2.466 0.578,0 0.954,0.125 1.114,0.209 l -0.152,0.494 c -0.224,-0.111 -0.551,-0.194 -0.941,-0.194 -1.1,0 -1.832,0.703 -1.832,1.937 0,1.156 0.662,1.887 1.797,1.887 0.377,0 0.753,-0.076 0.996,-0.194 l 0.11,0.48 z"
   inkscape:connector-curvature="0" />
			<path
   id="path1001"
   d="m 301.07,121.27 h 0.613 v 4.945 h -0.613 v -4.95 z"
   inkscape:connector-curvature="0" />
			<path
   id="path1003"
   d="m 303.31,122.67 v 0.261 h -1.004 v -0.261 h 1 z"
   inkscape:connector-curvature="0" />
		</g>
	</g>
	<g
   id="g1021">
		<circle
   id="circle1009"
   cy="166.60001"
   r="6.566"
   cx="301.20999"
   style="fill:#ffff00;stroke:#000000" />
		<g
   id="g1019">
			<rect
   id="rect1011"
   width="13.156"
   height="13.156"
   x="297.98999"
   y="163.96001"
   style="fill:none" />
			<path
   id="path1013"
   d="m 301.79,168.76 c -0.215,0.112 -0.668,0.224 -1.239,0.224 -1.323,0 -2.313,-0.836 -2.313,-2.382 0,-1.477 0.995,-2.467 2.452,-2.467 0.578,0 0.953,0.126 1.113,0.209 l -0.152,0.495 c -0.223,-0.111 -0.551,-0.194 -0.94,-0.194 -1.101,0 -1.832,0.703 -1.832,1.936 0,1.156 0.661,1.888 1.797,1.888 0.376,0 0.753,-0.077 0.996,-0.194 l 0.11,0.47 z"
   inkscape:connector-curvature="0" />
			<path
   id="path1015"
   d="m 302.51,163.96 h 0.613 v 4.945 h -0.613 v -4.94 z"
   inkscape:connector-curvature="0" />
			<path
   id="path1017"
   d="m 304.76,165.36 v 0.26 h -1.003 v -0.26 h 1 z"
   inkscape:connector-curvature="0" />
		</g>
	</g>
	<g
   id="g1041">
			<rect
   id="rect1023"
   x="335.95999"
   y="144.46001"
   width="75.014"
   height="39.091"
   transform="matrix(0.9511,0.309,-0.309,0.9511,68.965,-107.39)"
   style="fill:none" />
		<path
   id="path1025"
   d="m 343.64,136.95 c 0.16,-0.493 0.267,-0.886 0.372,-1.279 l 0.744,0.242 -0.206,0.767 0.029,0.009 c 0.405,-0.359 0.976,-0.634 1.759,-0.379 0.628,0.204 0.985,0.747 1.01,1.364 l 0.02,0.007 c 0.232,-0.224 0.488,-0.354 0.729,-0.437 0.35,-0.121 0.688,-0.14 1.132,0.004 0.629,0.204 1.415,0.909 0.888,2.533 l -0.896,2.754 -0.831,-0.27 0.86,-2.648 c 0.296,-0.909 0.129,-1.551 -0.547,-1.771 -0.493,-0.16 -0.978,0.078 -1.264,0.435 -0.079,0.112 -0.158,0.258 -0.206,0.403 l -0.941,2.899 -0.832,-0.271 0.911,-2.803 c 0.245,-0.754 0.089,-1.393 -0.559,-1.604 -0.521,-0.169 -1.057,0.127 -1.329,0.509 -0.09,0.11 -0.156,0.249 -0.203,0.394 l -0.917,2.822 -0.831,-0.27 1.12,-3.39 z"
   inkscape:connector-curvature="0" />
		<path
   id="path1027"
   d="m 351.79,140.94 c -0.354,1.156 0.216,1.865 1.066,2.142 0.609,0.198 1.021,0.215 1.371,0.189 l -0.04,0.649 c -0.344,0.038 -0.919,0.033 -1.664,-0.209 -1.43,-0.465 -1.989,-1.705 -1.534,-3.106 0.462,-1.421 1.665,-2.259 3.027,-1.816 1.527,0.497 1.486,1.969 1.207,2.829 -0.057,0.174 -0.109,0.307 -0.16,0.396 l -3.29,-1.07 z m 2.68,0.2 c 0.183,-0.528 0.227,-1.455 -0.721,-1.763 -0.869,-0.282 -1.495,0.391 -1.754,0.959 l 2.47,0.8 z"
   inkscape:connector-curvature="0" />
		<path
   id="path1029"
   d="m 356.55,141.14 c 0.16,-0.492 0.267,-0.886 0.372,-1.278 l 0.744,0.241 -0.206,0.767 0.029,0.01 c 0.405,-0.359 0.976,-0.634 1.759,-0.38 0.628,0.204 0.985,0.748 1.01,1.365 l 0.02,0.006 c 0.232,-0.224 0.488,-0.354 0.729,-0.436 0.35,-0.122 0.688,-0.141 1.132,0.004 0.629,0.204 1.415,0.908 0.888,2.532 l -0.896,2.755 -0.831,-0.271 0.86,-2.648 c 0.296,-0.908 0.129,-1.55 -0.547,-1.77 -0.493,-0.16 -0.978,0.078 -1.264,0.434 -0.079,0.112 -0.158,0.258 -0.206,0.403 l -0.941,2.899 -0.832,-0.27 0.911,-2.804 c 0.245,-0.754 0.089,-1.393 -0.559,-1.603 -0.521,-0.17 -1.057,0.127 -1.329,0.509 -0.09,0.109 -0.156,0.248 -0.203,0.394 l -0.917,2.822 -0.831,-0.271 1.12,-3.4 z"
   inkscape:connector-curvature="0" />
		<path
   id="path1031"
   d="m 365.73,140.31 0.851,0.276 -0.951,2.93 0.019,0.006 c 0.47,-0.425 1.118,-0.577 1.872,-0.333 1.159,0.377 1.658,1.607 1.199,3.019 -0.547,1.683 -1.88,2.168 -2.924,1.829 -0.678,-0.221 -1.124,-0.654 -1.28,-1.389 l -0.02,-0.007 -0.3,0.758 -0.734,-0.238 c 0.133,-0.31 0.297,-0.78 0.432,-1.196 l 1.83,-5.66 z m -0.77,5.26 c -0.034,0.105 -0.06,0.215 -0.071,0.318 -0.027,0.643 0.343,1.212 0.952,1.41 0.898,0.292 1.655,-0.264 2.005,-1.337 0.308,-0.946 0.085,-1.906 -0.823,-2.201 -0.581,-0.188 -1.253,0.042 -1.625,0.626 -0.064,0.097 -0.12,0.207 -0.164,0.342 l -0.28,0.84 z"
   inkscape:connector-curvature="0" />
		<path
   id="path1033"
   d="m 370.06,145.74 c 0.179,-0.552 0.323,-1.028 0.436,-1.472 l 0.744,0.241 -0.261,0.931 0.03,0.01 c 0.417,-0.56 1.067,-0.786 1.638,-0.601 0.086,0.028 0.151,0.06 0.222,0.104 l -0.257,0.793 c -0.094,-0.041 -0.177,-0.079 -0.293,-0.116 -0.6,-0.195 -1.173,0.121 -1.492,0.712 -0.061,0.119 -0.114,0.252 -0.161,0.396 l -0.811,2.494 -0.86,-0.26 1.06,-3.22 z"
   inkscape:connector-curvature="0" />
		<path
   id="path1035"
   d="m 375.76,149.92 c -0.132,0.407 -0.242,0.809 -0.298,1.144 l -0.763,-0.248 0.114,-0.614 -0.029,-0.01 c -0.371,0.285 -0.989,0.448 -1.656,0.231 -0.947,-0.308 -1.215,-1.132 -0.994,-1.809 0.367,-1.131 1.574,-1.423 3.378,-0.826 l 0.031,-0.097 c 0.126,-0.387 0.248,-1.127 -0.711,-1.428 -0.445,-0.145 -0.94,-0.167 -1.341,-0.051 l -0.008,-0.634 c 0.465,-0.115 1.088,-0.095 1.678,0.097 1.44,0.469 1.472,1.558 1.167,2.495 l -0.57,1.76 z m -0.42,-1.54 c -0.923,-0.321 -2.029,-0.499 -2.324,0.409 -0.183,0.561 0.104,0.932 0.528,1.069 0.619,0.201 1.141,-0.057 1.405,-0.409 0.057,-0.077 0.099,-0.171 0.127,-0.258 l 0.25,-0.81 z"
   inkscape:connector-curvature="0" />
		<path
   id="path1037"
   d="m 377.87,148.07 c 0.16,-0.493 0.276,-0.883 0.373,-1.278 l 0.754,0.245 -0.2,0.778 0.02,0.007 c 0.373,-0.36 1.056,-0.619 1.829,-0.367 0.647,0.21 1.528,0.924 1.007,2.528 l -0.908,2.793 -0.851,-0.276 0.876,-2.696 c 0.245,-0.754 0.172,-1.483 -0.63,-1.744 -0.551,-0.179 -1.114,0.076 -1.424,0.5 -0.073,0.093 -0.143,0.242 -0.187,0.377 l -0.917,2.822 -0.851,-0.276 1.11,-3.41 z"
   inkscape:connector-curvature="0" />
		<path
   id="path1039"
   d="m 383.32,151.19 c -0.354,1.156 0.217,1.865 1.067,2.142 0.609,0.198 1.021,0.215 1.371,0.189 l -0.041,0.649 c -0.343,0.038 -0.918,0.032 -1.663,-0.209 -1.431,-0.465 -1.989,-1.705 -1.534,-3.106 0.462,-1.421 1.664,-2.259 3.026,-1.816 1.528,0.497 1.487,1.969 1.208,2.829 -0.057,0.174 -0.11,0.307 -0.161,0.396 l -3.29,-1.07 z m 2.68,0.19 c 0.182,-0.528 0.226,-1.455 -0.722,-1.763 -0.869,-0.282 -1.494,0.391 -1.754,0.959 l 2.47,0.8 z"
   inkscape:connector-curvature="0" />
	</g>
</g></g>
<metadata
   id="metadata1044"><rdf:RDF><cc:Work><dc:format>image/svg+xml</dc:format><dc:type
         rdf:resource="http://purl.org/dc/dcmitype/StillImage" /><cc:license
         rdf:resource="http://creativecommons.org/publicdomain/zero/1.0/" /><dc:publisher><cc:Agent
           rdf:about="http://openclipart.org/"><dc:title>Openclipart</dc:title></cc:Agent></dc:publisher><dc:title>Ion Exchange Capacity Experiment</dc:title><dc:date>2011-08-23T04:30:46</dc:date><dc:description>A schematic outlining the experimental approach to measure the ion exchange capacity of a membrane.</dc:description><dc:source>https://openclipart.org/detail/157621/ion-exchange-capacity-experiment-by-sunblaed</dc:source><dc:creator><cc:Agent><dc:title>sunblaed</dc:title></cc:Agent></dc:creator><dc:subject><rdf:Bag><rdf:li>Capacity</rdf:li><rdf:li>Engineering</rdf:li><rdf:li>Exchange</rdf:li><rdf:li>Experiment</rdf:li><rdf:li>Ion</rdf:li><rdf:li>Membrane</rdf:li><rdf:li>Science</rdf:li></rdf:Bag></dc:subject></cc:Work><cc:License
       rdf:about="http://creativecommons.org/publicdomain/zero/1.0/"><cc:permits
         rdf:resource="http://creativecommons.org/ns#Reproduction" /><cc:permits
         rdf:resource="http://creativecommons.org/ns#Distribution" /><cc:permits
         rdf:resource="http://creativecommons.org/ns#DerivativeWorks" /></cc:License></rdf:RDF></metadata></svg>